<svg width="143" height="46" viewBox="0 0 143 46" fill="none" xmlns="http://www.w3.org/2000/svg">
<g clip-path="url(#clip0)">
<path d="M70.4439 45.8357C63.5737 45.5828 56.516 43.8887 49.3007 40.7605C46.3643 39.4875 43.2587 37.9105 40.0986 36.0878C38.0144 34.8856 33.2433 31.9329 32.9777 31.6808C32.8106 31.5222 32.7451 31.3734 32.7451 31.1521C32.7451 30.7424 33.0363 30.4497 33.4433 30.4503C33.6543 30.4507 33.7053 30.4732 34.2035 30.7854C36.203 32.0385 38.9687 33.458 41.6635 34.6142C54.2143 39.9989 69.0834 41.8898 83.3567 39.9162C93.1044 38.5683 102.474 35.4145 109.783 31.0212C110.837 30.3873 110.934 30.354 111.25 30.5186C111.687 30.746 111.781 31.3026 111.441 31.6431C111.308 31.777 111.144 31.8833 108.745 33.3894C102.346 37.4062 97.1805 40.0581 91.8019 42.0871C84.5674 44.8163 77.3176 46.0887 70.4439 45.8357Z" fill="#F18D2F"/>
<path fill-rule="evenodd" clip-rule="evenodd" d="M0 0.709079C0 0.709079 0.13527 1.1396 0.266133 2.36312C0.423004 5.41106 0.431328 7.93748 0.449456 10.7545C0.485573 12.9298 0.464455 15.0495 0.445802 17.0906C0.433255 18.4728 0.423807 19.2263 0.423807 20.4831C0.423807 24.2229 0.130441 26.8441 0.130441 26.8441C0.130441 26.8441 2.86489 27.439 6.99226 27.439C11.1211 27.439 15.5018 25.9944 18.0296 23.8268C20.5568 21.6594 22.8312 18.5569 22.8312 12.9904C22.8312 7.42373 20.4725 4.36383 17.3556 2.36688C14.2379 0.369012 9.47798 -0.0128302 5.81284 0.15686C2.14861 0.327237 0.126799 0.709079 0 0.709079ZM106.789 5.15202C111.009 5.15202 114.431 9.00576 114.431 13.7578C114.431 18.5099 111.009 22.3638 106.789 22.3638C102.571 22.3638 99.1483 18.5099 99.1483 13.7578C99.1483 9.00576 102.571 5.15202 106.789 5.15202ZM106.954 0.000165212C114.035 0.000165212 119.776 6.20674 119.776 13.7578C119.776 21.309 113.87 27.4325 106.789 27.4325C99.7096 27.4325 93.9673 21.309 93.9673 13.7578C93.9673 6.20674 99.8739 0.000165212 106.954 0.000165212ZM120.888 26.504H126.612V9.03799C131.85 13.6704 135.709 19.4927 138.026 26.504L142.943 26.5337V0.878772L137.462 0.878779L137.456 13.4478C135.74 10.5526 133.639 8.17147 131.572 6.11876C129.503 4.06286 127.822 2.32202 125.727 0.878779H120.888V26.504ZM47.1791 26.504H52.7395V9.03799C57.9771 13.6704 61.7551 19.4927 64.0717 26.504H69.0422V0.878769H63.4812V13.243C60.2502 8.54679 56.3359 4.32855 51.8556 0.878769H47.1791V26.504ZM31.2987 0.878769H36.6907C41.9263 6.72238 45.1312 15.2217 46.211 26.504H40.3551C40.203 24.5445 39.9657 22.7435 39.6438 20.9353H28.0842C27.7633 22.7407 27.5281 24.5414 27.381 26.504H21.6942C22.72 15.1537 26.1565 6.37154 31.2987 0.878769ZM38.5648 16.1354C37.3078 12.0855 35.8113 8.75374 33.7858 5.68087C31.7734 8.76566 30.1994 12.2434 29.087 16.1354H38.5648ZM5.8619 5.17111C5.8619 5.17111 6.99228 5.12842 8.38298 5.12842C9.77345 5.12842 12.8105 5.38349 15.0426 7.59342C17.275 9.80342 17.3173 12.3103 17.3173 14.0531C17.3173 15.7953 16.7237 19.5772 13.0586 21.2767C9.39411 22.9772 5.81981 22.3396 5.81981 22.3396L5.8619 5.17111Z" fill="#F18D2F"/>
<path fill-rule="evenodd" clip-rule="evenodd" d="M70.8018 26.5039H76.3622V9.0379C81.5998 13.6703 85.3778 19.4926 87.6944 26.5039H92.6648V0.87868H87.1038V13.243C83.8728 8.5467 79.9586 4.32846 75.4783 0.87868H70.8018V26.5039Z" fill="#F18D2F"/>
</g>
<defs>
<clipPath id="clip0">
<rect width="143" height="46" fill="white"/>
</clipPath>
</defs>
</svg>
