<svg width="155" height="51" viewBox="0 0 155 51" fill="none" xmlns="http://www.w3.org/2000/svg">
<g clip-path="url(#clip0_1018_4017)">
<path d="M66.342 26.8379C66.342 34.1719 60.605 39.5762 53.5645 39.5762C46.524 39.5762 40.7871 34.1719 40.7871 26.8379C40.7871 19.4522 46.524 14.0996 53.5645 14.0996C60.605 14.0996 66.342 19.4522 66.342 26.8379ZM60.7486 26.8379C60.7486 22.2549 57.4236 19.1191 53.5645 19.1191C49.7055 19.1191 46.3805 22.2549 46.3805 26.8379C46.3805 31.375 49.7055 34.5567 53.5645 34.5567C57.4236 34.5567 60.7486 31.3693 60.7486 26.8379Z" fill="#F18D2F"/>
<path d="M93.9064 26.8379C93.9064 34.1719 88.1695 39.5762 81.129 39.5762C74.0885 39.5762 68.3516 34.1719 68.3516 26.8379C68.3516 19.458 74.0885 14.0996 81.129 14.0996C88.1695 14.0996 93.9064 19.4522 93.9064 26.8379ZM88.3131 26.8379C88.3131 22.2549 84.9881 19.1191 81.129 19.1191C77.2699 19.1191 73.9449 22.2549 73.9449 26.8379C73.9449 31.375 77.2699 34.5567 81.129 34.5567C84.9881 34.5567 88.3131 31.3693 88.3131 26.8379Z" fill="#F18D2F"/>
<path d="M120.322 14.8692V37.7384C120.322 47.1457 114.775 50.9879 108.217 50.9879C102.043 50.9879 98.3277 46.8585 96.9265 43.4816L101.796 41.4542C102.663 43.5275 104.788 45.9741 108.211 45.9741C112.409 45.9741 115.01 43.3839 115.01 38.508V36.6759H114.815C113.563 38.2208 111.151 39.5705 108.107 39.5705C101.739 39.5705 95.9043 34.0226 95.9043 26.8839C95.9043 19.6934 101.739 14.0996 108.107 14.0996C111.145 14.0996 113.557 15.4492 114.815 16.9482H115.01V14.8749H120.322V14.8692ZM115.406 26.8839C115.406 22.3985 112.414 19.1191 108.607 19.1191C104.748 19.1191 101.515 22.3985 101.515 26.8839C101.515 31.3233 104.748 34.5567 108.607 34.5567C112.414 34.5567 115.406 31.3233 115.406 26.8839Z" fill="#F18D2F"/>
<path d="M129.081 1.46484V38.7953H123.625V1.46484H129.081Z" fill="#F18D2F"/>
<path d="M150.34 31.0303L154.682 33.9248C153.281 35.9981 149.904 39.5704 144.069 39.5704C136.834 39.5704 131.43 33.9765 131.43 26.8321C131.43 19.2568 136.879 14.0938 143.443 14.0938C150.053 14.0938 153.286 19.3545 154.343 22.1973L154.923 23.6446L137.896 30.6972C139.2 33.2529 141.227 34.5566 144.069 34.5566C146.918 34.5566 148.893 33.1553 150.34 31.0303ZM136.977 26.4473L148.359 21.7207C147.733 20.1298 145.85 19.0214 143.633 19.0214C140.79 19.0214 136.834 21.5311 136.977 26.4473Z" fill="#F18D2F"/>
<path d="M20.1372 23.5242V18.1199H38.3472C38.5253 19.0617 38.6171 20.1759 38.6171 21.382C38.6171 25.4366 37.5088 30.4504 33.9369 34.0227C30.4626 37.6408 26.0235 39.5705 20.143 39.5705C9.24341 39.5705 0.078125 30.6916 0.078125 19.7911C0.078125 8.89063 9.24341 0.0117188 20.143 0.0117188C26.1728 0.0117188 30.4683 2.3779 33.6957 5.46197L29.8825 9.27542C27.5683 7.10451 24.4328 5.41602 20.1372 5.41602C12.1779 5.41602 5.95287 11.8311 5.95287 19.7911C5.95287 27.7511 12.1779 34.1662 20.1372 34.1662C25.2999 34.1662 28.2401 32.093 30.1237 30.2092C31.6513 28.6815 32.6562 26.4991 33.0525 23.5184L20.1372 23.5242Z" fill="#F18D2F"/>
</g>
<defs>
<clipPath id="clip0_1018_4017">
<rect width="155" height="51" fill="white"/>
</clipPath>
</defs>
</svg>
