<svg width="150" height="36" viewBox="0 0 150 36" fill="none" xmlns="http://www.w3.org/2000/svg">
<g clip-path="url(#clip0)">
<path d="M143.597 28.675H143.978C143.978 29.437 144.293 30.1195 144.804 30.6167C145.316 31.1139 146.018 31.4198 146.802 31.4198C147.579 31.4198 148.287 31.1139 148.799 30.6167C149.31 30.1195 149.625 29.437 149.625 28.675H150C150 30.399 148.569 31.7905 146.802 31.7905V31.6052V31.7905C145.037 31.7935 143.603 30.399 143.597 28.675ZM149.625 28.675C149.625 27.919 149.31 27.2306 148.799 26.7393C148.287 26.2421 147.579 25.9302 146.802 25.9302V25.5654C148.569 25.5654 150 26.957 150 28.675H149.625ZM146.802 25.7508V25.5654V25.7508ZM143.597 28.675C143.603 26.957 145.037 25.5654 146.802 25.5654V25.9302C146.018 25.9302 145.316 26.2421 144.804 26.7393C144.293 27.2306 143.978 27.919 143.978 28.675H143.597Z" fill="#F18D2F"/>
<path d="M48.4814 9.68799H54.1012V30.5255H48.4814V9.68799Z" fill="#F18D2F"/>
<path d="M130.708 21.6407V30.4459L125.055 30.4253V9.04346L135.238 17.5632V9.68774H140.846V31.2961L130.708 21.6407Z" fill="#F18D2F"/>
<path d="M20.2158 20.0494C20.2158 14.1362 25.1547 9.33496 31.2375 9.33496C33.9793 9.33496 36.4881 10.3176 38.4188 11.9268L34.7782 15.9454C33.8219 15.1629 32.5902 14.6922 31.2375 14.6922C28.1961 14.6922 25.7267 17.0928 25.7267 20.0494C25.7267 23.006 28.1961 25.4066 31.2375 25.4066C32.6084 25.4066 33.8643 24.9153 34.8327 24.1063L38.4673 28.1308C36.5365 29.7695 34.0065 30.755 31.2375 30.755C25.1547 30.758 20.2158 25.9656 20.2158 20.0494Z" fill="#F18D2F"/>
<path d="M64.8007 35.2941L54.1664 7.83132H45.2782V30.6076H39.4617V7.83132H26.585L29.5719 2.3623H58.3184L64.7976 18.8194L71.2829 2.3623H99.1155L102.184 7.83132H75.435L64.8007 35.2941Z" fill="#F18D2F"/>
<path d="M82.7656 30.446V25.8448H86.6271C87.2536 25.8448 88.449 25.7978 88.7486 24.8299C89.3689 22.8147 83.0138 19.5462 83.0138 14.5332C83.0138 10.741 85.8373 9.60547 87.7529 9.60547H93.6057V14.1272H89.9924C89.9924 14.1272 88.9543 14.1272 88.6699 14.5302C87.1023 16.7102 94.4803 19.9022 94.4803 25.7624C94.4803 28.825 91.7809 30.443 89.0845 30.443H82.7656" fill="#F18D2F"/>
<path d="M75.5234 9.60791H81.1493V30.4455H75.5234V9.60791V9.60791Z" fill="#F18D2F"/>
<path d="M95.3906 9.60791H101.016V30.4455H95.3906V9.60791Z" fill="#F18D2F"/>
<path d="M147.634 30.2668C147.537 30.0491 147.553 29.7167 147.51 29.4372C147.456 29.0724 147.313 28.9135 146.917 28.9135H146.133V30.2668H145.355V26.8071H147.271C147.913 26.8071 148.315 27.2366 148.315 27.7633C148.315 28.1751 148.146 28.4781 147.749 28.6311V28.6458C148.137 28.74 148.249 29.1048 148.267 29.4549C148.288 29.6726 148.282 30.0785 148.418 30.2698H147.634V30.2668ZM146.133 28.3781H146.993C147.341 28.3781 147.531 28.231 147.531 27.8809C147.531 27.5485 147.341 27.4043 146.993 27.4043H146.133V28.3781Z" fill="#F18D2F"/>
<path d="M15.9454 30.5253L14.4504 26.6478H7.47488L5.97991 30.5253H0L10.9672 0L21.9344 30.5253H15.9454ZM9.1817 21.0788H12.5045L10.8401 15.7481L9.1817 21.0788Z" fill="#F18D2F"/>
<path d="M102.039 20.0431C102.039 14.121 106.984 9.31396 113.082 9.31396C119.174 9.31396 124.119 14.121 124.119 20.0431C124.119 25.9711 119.174 30.7782 113.082 30.7782C106.984 30.7782 102.039 25.9711 102.039 20.0431ZM107.598 20.0431C107.598 22.988 110.053 25.3739 113.082 25.3739C116.102 25.3739 118.559 22.988 118.559 20.0431C118.559 17.1071 116.105 14.7183 113.082 14.7183C110.053 14.7183 107.598 17.1071 107.598 20.0431Z" fill="#F18D2F"/>
</g>
<defs>
<clipPath id="clip0">
<rect width="150" height="35.2941" fill="white"/>
</clipPath>
</defs>
</svg>
