<svg width="150" height="54" viewBox="0 0 150 54" fill="none" xmlns="http://www.w3.org/2000/svg">
<g clip-path="url(#clip0)">
<path d="M101.802 38.9417C101.794 38.9501 101.785 38.9501 101.785 38.9586C95.3953 43.4806 87.8303 48.231 79.6906 53.2179L79.3694 53.4039C79.2595 53.48 79.2341 53.6321 79.3102 53.742C79.3863 53.8519 79.5384 53.8772 79.6483 53.8012L79.9188 53.6575C86.8245 50.0567 94.7529 45.7797 102.732 41.3929C102.774 41.3675 102.817 41.3422 102.859 41.3253C102.419 40.5983 102.056 39.8038 101.802 38.9417V38.9417ZM143.727 5.00487C133.66 -6.10172 68.8714 3.88914 41.3247 9.90732L40.6823 10.0426C40.547 10.0679 40.4625 10.1947 40.4879 10.3215C40.5132 10.4567 40.64 10.5413 40.7668 10.5159L41.4008 10.3891C64.2225 6.32346 111.692 0.694091 121.902 10.8202C125.021 13.9138 124.278 17.8865 120.66 22.5861C122.604 23.837 123.99 25.8065 124.616 28.2661C138.731 18.9008 148.207 9.94958 143.727 5.00487V5.00487Z" fill="#F18D2F"/>
<path d="M105.876 36.0252C106.003 39.9303 108.479 43.1338 111.7 43.1338C117.946 43.1338 120.609 35.4589 120.423 30.3367C120.287 26.4232 117.752 23.2281 114.531 23.2281C109.164 23.2197 105.69 30.8608 105.876 36.0252V36.0252ZM102.579 35.8139C102.351 29.1449 107.575 22.3237 115.165 22.3237C120.237 22.3237 123.559 25.7047 123.745 30.8861C123.99 37.9186 119.104 44.3763 111.167 44.3763C106.079 44.3763 102.757 41.0038 102.579 35.8139V35.8139Z" fill="#F18D2F"/>
<path d="M30.6936 34.0562C30.4231 34.1576 30.0766 34.259 29.6371 34.352C29.206 34.4534 28.4114 34.5887 27.2619 34.7746C26.4674 34.9014 25.918 35.062 25.6052 35.2902C25.3094 35.51 25.1319 35.772 25.0812 36.1017C25.022 36.4482 25.1319 36.7187 25.4277 36.9385C25.732 37.1498 26.2391 37.2596 26.9576 37.2596C27.4986 37.2596 28.0226 37.1751 28.5298 37.0061C29.0454 36.837 29.4849 36.6088 29.8146 36.3214C30.0597 36.1101 30.2372 35.8396 30.3724 35.51C30.4569 35.2902 30.5668 34.8084 30.6936 34.0562V34.0562ZM37.2866 29.9567C37.2612 30.5653 37.1513 31.1062 36.9907 32.0445L35.875 38.3078C35.782 38.8656 35.9849 39.2967 36.5005 39.601L36.4667 39.8461L30.0766 39.8377L30.0174 38.2486C29.0876 38.8065 27.9635 39.2798 26.9492 39.5587C25.9349 39.8208 25.115 39.9306 23.8894 39.9306C21.8269 39.9306 20.6436 39.7193 19.8237 39.0009C18.9954 38.2655 18.5896 37.7753 18.6319 36.761C18.6657 36.1777 18.97 35.4255 19.4011 34.9014C19.8406 34.3689 20.4492 34.0223 21.1 33.7096C21.7593 33.3969 22.537 33.1686 23.6611 32.9911C24.7938 32.8052 26.3659 32.6277 28.4706 32.4502C29.5779 32.3572 30.2541 32.1036 30.5668 31.9768C31.0064 31.8078 31.1839 31.6134 31.243 31.2584C31.3614 30.616 31.1585 30.2441 30.2963 30.075C27.9973 29.6186 23.678 30.3709 21.455 30.9203L22.6637 27.6576C25.5968 27.2265 28.3438 26.9561 31.243 26.9561C35.8665 26.9561 37.3373 28.2662 37.2866 29.9567V29.9567Z" fill="#F18D2F"/>
<path d="M55.8145 39.8375L58.029 27.3193H64.1486L61.9341 39.8375H55.8145ZM58.3671 24.4201C58.5531 23.3889 60.1759 22.5605 61.9848 22.5605C63.8021 22.5605 65.1291 23.3973 64.9516 24.4201C64.7572 25.4513 63.1428 26.2881 61.317 26.2881C59.5082 26.2881 58.1896 25.4513 58.3671 24.4201V24.4201Z" fill="#F18D2F"/>
<path d="M85.8773 34.0814C85.5983 34.1743 85.2433 34.2758 84.8122 34.3772C84.3812 34.4786 83.5866 34.6054 82.4371 34.7914C81.651 34.9182 81.0931 35.0788 80.7889 35.307C80.493 35.5183 80.324 35.7888 80.2563 36.11C80.1887 36.4565 80.3155 36.7354 80.6029 36.9468C80.9156 37.1581 81.4228 37.2595 82.1413 37.2595C82.6738 37.2595 83.1978 37.1834 83.7134 37.0228C84.2375 36.8453 84.6686 36.6256 85.0067 36.3382C85.2433 36.1269 85.4208 35.8479 85.5476 35.5267C85.6321 35.3154 85.742 34.8336 85.8773 34.0814V34.0814ZM92.4702 29.9734C92.4449 30.5905 92.335 31.1314 92.1659 32.0612L91.0586 38.333C90.9657 38.8824 91.1685 39.3219 91.6841 39.6262L91.6503 39.846L85.2602 39.8544L85.2095 38.2569C84.2797 38.8232 83.1471 39.2966 82.1413 39.567C81.127 39.8375 80.3071 39.9474 79.0645 39.9474C77.0021 39.9474 75.8272 39.7445 75.0073 39.0176C74.1705 38.2738 73.7733 37.792 73.8155 36.7777C73.8409 36.186 74.1452 35.4338 74.5847 34.9182C75.0243 34.3772 75.6328 34.0391 76.2921 33.7264C76.9514 33.4136 77.7291 33.1854 78.8448 32.9994C79.9774 32.8219 81.558 32.636 83.6627 32.4585C84.7615 32.3655 85.4377 32.1204 85.7505 31.9936C86.1985 31.8245 86.3675 31.6301 86.4351 31.2667C86.545 30.6327 86.3506 30.2608 85.4969 30.0833C83.1809 29.6269 78.8786 30.3792 76.6556 30.9286L77.8558 27.6659C80.7973 27.2348 83.5359 26.9644 86.4351 26.9644C91.0417 26.9728 92.5125 28.2914 92.4702 29.9734V29.9734Z" fill="#F18D2F"/>
<path d="M17.8038 35.3408C15.809 35.738 14.6932 35.8902 12.7238 35.8902C9.79924 35.8902 7.4748 34.4363 7.60159 31.7738C7.69457 29.9988 9.79079 26.2628 15.1243 26.2628C16.8064 26.2628 18.1165 26.5586 19.8831 27.5645L20.6607 23.2199C18.2602 22.3155 16.6711 22.1802 14.6087 22.1971C7.61004 22.2732 0.898757 25.4513 0.0619596 31.9175C-0.78329 38.4851 7.23813 40.1333 10.7966 40.1164C12.8506 40.108 14.9891 40.0234 16.9839 39.8206L17.8038 35.3408Z" fill="#F18D2F"/>
<path d="M67.522 27.2515L67.9615 24.6989L74.36 23.3042L73.6754 27.2431H76.8113L76.2196 29.7619L73.1767 29.7535L71.3256 39.8204C71.3256 39.8204 65.1637 39.7781 65.1384 39.8204L66.981 29.7788H64.665L65.1384 27.2431H67.522V27.2515Z" fill="#F18D2F"/>
<path d="M101.661 22.5431L98.6855 39.8284L92.4561 39.8369L95.5919 22.374L101.661 22.5431Z" fill="#F18D2F"/>
<path d="M47.7175 30.2525C46.9146 30.2525 46.1876 30.4976 45.5453 30.9794C44.9029 31.4697 44.4971 32.1797 44.3365 33.1179C44.1421 34.2083 44.2605 34.9944 44.6915 35.4762C45.1311 35.958 45.7566 36.2031 46.5849 36.2031C47.1428 36.2031 47.7175 36.1017 48.1402 35.8903C48.6642 35.6114 49.0277 35.324 49.3404 34.8591C49.6785 34.3773 49.8983 33.8364 50.0166 33.2109C50.1941 32.222 50.042 31.4866 49.5855 30.9963C49.1376 30.5061 48.5205 30.2525 47.7175 30.2525V30.2525ZM36.5771 44.1569L39.5609 27.3871H44.9367L44.5225 29.5256C44.9874 28.8832 45.7312 28.3592 46.7624 27.9365C47.8021 27.5139 48.9685 27.2012 50.2364 27.2012C51.6395 27.2012 52.5017 27.2772 53.5498 27.8182C54.5894 28.3676 55.3248 29.1622 55.7136 30.1934C56.1193 31.2077 56.2039 32.3572 55.9841 33.5997C55.6206 35.6706 54.6148 37.2935 52.9581 38.4937C51.3183 39.694 49.8391 40.0067 47.7344 40.0152C46.9906 40.0152 46.3651 39.9391 45.8495 39.8123C45.3424 39.6771 44.9367 39.5165 44.6324 39.3221C44.3365 39.1276 44.0238 38.8487 43.6265 38.4092L42.6291 44.1569H36.5771Z" fill="#F18D2F"/>
<path d="M147.657 31.7906C147.623 30.7848 147.116 30.1001 146.076 30.1001C143.566 30.1001 140.895 35.0195 140.438 36.9974C144.555 37.0058 147.758 34.5546 147.657 31.7906V31.7906ZM148.198 39.4993L148.679 39.829C147.454 42.3225 144.96 44.3257 142.036 44.3257C139.644 44.3257 137.674 42.7282 137.573 39.736C137.378 34.3687 142.408 29.3901 146.524 29.3901C148.291 29.3901 149.93 30.1593 149.998 32.0611C150.15 36.3296 144.157 37.6313 140.21 37.7243C140.083 38.1723 140.033 38.6203 140.058 39.2965C140.126 41.063 141.191 42.5507 143.405 42.5507C145.315 42.5507 147.226 41.0123 148.198 39.4993V39.4993Z" fill="#F18D2F"/>
<path d="M123.652 31.6556C124.075 31.5964 124.759 31.5203 125.055 31.5203C125.503 31.5203 125.926 31.6048 125.951 32.0528C125.96 32.3149 125.486 34.2167 125.385 34.6562L124.43 38.8655C124.041 40.5898 123.627 42.3902 123.255 43.8187H125.706L127.084 37.1497C131.285 32.7713 132.908 31.3428 133.897 31.3428C134.345 31.3428 134.649 31.5795 134.674 32.112C134.7 32.8812 134.218 34.6308 134.057 35.138L132.654 39.9982C132.333 41.0885 132.096 42.0775 132.122 42.779C132.164 43.8441 132.806 44.3174 133.77 44.3174C135.562 44.3174 136.863 42.4494 137.996 40.6152L137.666 40.0151C137.21 40.7504 136.145 42.3649 135.308 42.3649C135.046 42.3649 134.793 42.1874 134.784 41.7478C134.759 41.1815 134.995 40.3278 135.164 39.7615L136.728 34.0645C137.151 32.4924 137.345 31.4865 137.337 30.9455C137.294 29.8805 136.677 29.3818 135.722 29.3818C134.108 29.3818 131.969 30.5652 127.43 35.7804H127.363L127.938 33.2362C128.25 31.8415 128.555 30.3877 128.842 29.3818C127.27 29.9482 125.021 30.5821 123.635 30.8526L123.652 31.6556Z" fill="#F18D2F"/>
</g>
<defs>
<clipPath id="clip0">
<rect width="150" height="53.8433" fill="white"/>
</clipPath>
</defs>
</svg>
