<svg width="150" height="38" viewBox="0 0 150 38" fill="none" xmlns="http://www.w3.org/2000/svg">
<path d="M0.75 8.17775C0.75 8.17775 4.44261 23.309 5.03194 25.7651C5.71978 28.6317 6.95917 29.6868 10.5325 28.9752L12.8383 19.5939C13.4227 17.2637 13.8147 15.6024 14.1903 13.2319H14.2564C14.5203 15.6257 14.8962 17.2706 15.3771 19.6021C15.3771 19.6021 16.3157 23.8609 16.7964 26.0978C17.2783 28.3339 18.6195 29.7433 22.1196 28.976L27.6137 8.17935H23.1779L21.3023 17.1707C20.798 19.788 20.3404 21.833 19.9876 24.2274H19.925C19.6043 21.8569 19.1965 19.8929 18.6838 17.3429L16.7308 8.17935H12.1092L10.0201 17.112C9.42831 19.8264 8.87477 22.0183 8.52276 24.3314H8.45901C8.09853 22.1531 7.61839 19.3983 7.09846 16.7707C7.09846 16.7707 5.85733 10.3816 5.42187 8.17935L0.750432 8.17994L0.75 8.17775ZM43.036 8.17775V28.9744H47.2592V24.5583V8.17676H43.036V8.17775ZM102.516 8.17775V23.5198C102.516 25.6351 102.914 27.1171 103.766 28.0225C104.51 28.8143 105.736 29.327 107.204 29.327C108.453 29.327 109.681 29.0902 110.26 28.8746L110.206 25.5742C109.775 25.6803 109.279 25.7651 108.602 25.7651C107.163 25.7651 106.68 24.8437 106.68 22.9445V17.0747H110.359V13.0956H106.68V8.17781H102.516L102.516 8.17775ZM33.5979 12.9989C30.9733 12.9989 28.8899 13.7358 27.7542 14.3921L28.5853 17.238C29.6247 16.5828 31.2796 16.0403 32.8466 16.0403C35.4409 16.0337 35.8651 17.5073 35.8651 18.4524V18.6759C30.212 18.6674 26.6412 20.6235 26.6412 24.611C26.6412 27.0455 28.4589 29.327 31.6197 29.327C33.5655 29.327 35.1927 28.551 36.168 27.3076H36.2636C36.2636 27.3076 36.9094 30.0079 40.4673 28.9753C40.2804 27.8514 40.2197 26.6532 40.2197 25.21V19.6543C40.2197 16.1133 38.7078 12.9989 33.598 12.9989L33.5979 12.9989ZM58.8608 12.9989C56.2181 12.9989 55.0305 14.3381 54.3104 15.4744H54.2478V13.3515H50.2175V28.9754H54.4632V19.8127C54.4632 19.3831 54.5123 18.9289 54.6622 18.5337C55.014 17.6112 55.8723 16.5321 57.2426 16.5321C58.9557 16.5321 59.7574 17.9804 59.7574 20.0706V28.9753H63.9985V19.7016C63.9985 19.2916 64.0547 18.7977 64.1754 18.4352C64.5241 17.3858 65.4494 16.5319 66.7232 16.5319C68.4599 16.5319 69.2935 17.9551 69.2935 20.4146V28.9753H73.5376V19.7733C73.5376 14.9204 71.0734 12.9989 68.2917 12.9989C67.0598 12.9989 66.0875 13.3078 65.2084 13.8475C64.4694 14.301 63.808 14.9452 63.2297 15.7935H63.1671C62.4944 14.1097 60.9161 12.9989 58.8601 12.9989L58.8608 12.9989ZM82.1752 12.9989C79.5512 12.9989 77.4682 13.7358 76.3315 14.3921L77.1638 17.238C78.2021 16.5828 79.8581 16.0403 81.4242 16.0403C84.0168 16.0337 84.4419 17.5073 84.4419 18.4524V18.6759C78.7897 18.6674 75.2185 20.6235 75.2185 24.611C75.2185 27.0455 77.0371 29.327 80.1996 29.327C82.1438 29.327 83.7716 28.551 84.745 27.3076H84.8411C84.8411 27.3076 85.4868 30.0079 89.0452 28.9753C88.858 27.8514 88.7979 26.6532 88.7979 25.21V19.6543C88.7979 16.1133 87.2857 12.9989 82.1752 12.9989L82.1752 12.9989ZM99.8065 12.9989C98.1807 12.9989 96.3311 14.0483 95.5547 16.298H95.4361V13.3513H91.6141V28.9752H95.9711V20.9748C95.9711 20.5432 95.9973 20.1669 96.0655 19.8218C96.3878 18.1459 97.6696 17.0746 99.5094 17.0746C100.014 17.0746 100.376 17.1293 100.767 17.1858V13.0955C100.439 13.0293 100.215 12.9987 99.8068 12.9987L99.8065 12.9989ZM36.0014 21.4445V23.3936C36.0014 23.6819 35.9763 23.9794 35.8965 24.2395C35.5696 25.322 34.4482 26.2368 33.0464 26.2368C31.8776 26.2368 30.9492 25.5735 30.9492 24.1702C30.9492 22.0239 33.3119 21.4306 36.0016 21.4445H36.0014ZM84.5787 21.4445V23.3936C84.5787 23.6819 84.5531 23.9794 84.4738 24.2395C84.1469 25.322 83.0259 26.2368 81.6241 26.2368C80.4551 26.2368 79.5265 25.5735 79.5265 24.1702C79.5265 22.0239 81.8892 21.4306 84.5789 21.4445H84.5787Z" fill="#F18D2F"/>
<path d="M133.193 0.656738C131.83 0.656738 130.746 1.41812 130.746 2.34502L131.574 11.7209C131.666 12.2858 132.358 12.7215 133.194 12.7215C134.032 12.7204 134.722 12.2851 134.815 11.7209L135.647 2.34502C135.647 1.4182 134.56 0.656818 133.195 0.656818L133.193 0.656738ZM119.7 8.17764C118.992 8.19443 118.188 8.73034 117.676 9.61713C116.992 10.798 117.114 12.1176 117.914 12.5805L126.447 16.5543C126.98 16.7525 127.704 16.374 128.123 15.6512C128.123 15.6511 128.123 15.6509 128.123 15.6508C128.544 14.9245 128.512 14.1079 128.068 13.7456L120.362 8.34025C120.161 8.22432 119.936 8.17216 119.7 8.17775L119.7 8.17764ZM146.687 8.17764C146.451 8.17204 146.226 8.22421 146.026 8.34013L138.319 13.7455C137.878 14.1077 137.845 14.9244 138.264 15.6507L138.265 15.6511C138.686 16.3739 139.407 16.7524 139.94 16.5541L148.477 12.5806C149.28 12.1177 149.396 10.7981 148.716 9.61721C148.202 8.7304 147.397 8.19452 146.689 8.17772L146.687 8.17764ZM126.766 20.5478C126.655 20.5463 126.548 20.5634 126.448 20.6011L117.915 24.57C117.115 25.035 116.994 26.3551 117.678 27.5372C118.36 28.7157 119.562 29.276 120.362 28.8138L128.069 23.4126C128.513 23.046 128.546 22.2295 128.124 21.5039L128.128 21.5055C127.787 20.9145 127.244 20.5542 126.766 20.5477L126.766 20.5478ZM139.625 20.5478C139.147 20.5543 138.605 20.9146 138.264 21.5057L138.267 21.5041C137.847 22.2297 137.88 23.0461 138.321 23.4128L146.028 28.8139C146.827 29.2761 148.031 28.7159 148.716 27.5373C149.395 26.3552 149.28 25.0351 148.476 24.5701L139.942 20.6012C139.842 20.5635 139.735 20.5464 139.625 20.5479L139.625 20.5478ZM133.192 24.4335C132.357 24.4345 131.667 24.8684 131.575 25.4318L130.747 34.8073C130.747 35.7358 131.831 36.4956 133.194 36.4956C134.56 36.4956 135.646 35.7358 135.646 34.8073L134.816 25.4318C134.723 24.8684 134.033 24.4346 133.195 24.4335H133.192H133.192Z" fill="#F18D2F"/>
</svg>
