<svg width="130" height="72" viewBox="0 0 130 72" fill="none" xmlns="http://www.w3.org/2000/svg">
<g clip-path="url(#clip0)">
<path d="M121.996 23.9398C123.049 21.8538 124.577 18.6201 124.857 18.019C125.016 17.6911 125.235 17.1494 125.401 16.142C125.746 14.5312 125.282 12.9583 124.142 11.901C121.937 9.8506 118.189 9.02853 116.148 8.71966C112.785 8.21359 109.587 8.96913 108.978 9.12594C108.969 9.12832 108.959 9.13069 108.95 9.13307C107.353 9.55836 106.115 10.8176 105.718 12.4213C105.713 12.438 105.711 12.4522 105.706 12.4689L105.675 12.59C105.58 12.9773 105.518 13.2292 105.478 13.4121C105.366 13.4976 105.252 13.5856 105.138 13.6735C104.691 14.0275 104.261 14.4456 103.862 14.8923C103.289 14.6001 102.691 14.3506 102.068 14.1486C100.704 13.7067 99.2591 13.4881 97.8119 13.4549C97.8785 13.184 97.9379 12.8942 97.9878 12.5853C97.9901 12.5758 97.9901 12.5639 97.9925 12.5544C98.166 11.4187 97.9284 10.2901 97.3224 9.37779C96.5049 8.14944 95.1385 7.42953 93.6652 7.42953C93.6438 7.42953 93.6224 7.42953 93.601 7.42953L93.8197 6.76903C93.8553 6.66449 93.8672 6.62172 94.0953 5.8044C94.1737 5.53355 94.207 5.30308 94.2284 5.12014C94.4827 3.61142 93.9504 2.09083 92.7836 1.06919C91.46 -0.0783855 89.5731 -0.327858 87.9739 0.43719C87.8099 0.515595 83.908 2.38545 80.6476 4.55942C78.2642 6.14654 76.2086 7.43904 75.9876 7.57684C74.8874 8.26348 74.184 9.33027 73.9036 10.7344C73.8869 10.7843 73.8703 10.8414 73.8513 10.9055C72.378 10.3282 70.7121 10.0597 68.9037 10.1523C63.0176 10.4517 59.2725 13.6568 57.6684 15.3817C56.6799 14.6096 55.5273 14.0631 54.2465 13.7875C47.2506 12.2883 41.899 17.8028 40.0455 20.9248C39.5536 21.7587 39.2874 23.2033 39.4752 24.6003C39.2399 25.1515 39.0379 25.7146 38.8668 26.2849C38.6886 26.2397 38.508 26.2017 38.3274 26.1708C38.7124 23.7973 39.2375 21.1552 39.9457 18.7009C39.9504 18.6867 39.9528 18.6724 39.9576 18.6605C40.0883 18.1853 40.1002 17.8884 40.1501 16.6339C40.1501 16.6244 40.1501 16.6172 40.1501 16.6077C40.2023 15.0515 39.4585 13.6164 38.1706 12.7754C36.6259 11.7608 34.5775 11.825 33.0591 12.9441C31.7544 13.9111 30.5306 14.9303 29.3686 16.0161C29.1452 15.5409 28.8339 15.1014 28.4442 14.726C27.3772 13.6948 25.8659 13.2719 24.3973 13.6022C21.6289 14.2271 15.9732 17.0378 12.2827 20.0742C4.58814 26.4132 1.49177 33.6075 1.16383 34.4081C1.04739 34.6909 0.740844 35.4393 0.850155 37.0264C0.888177 37.5634 0.987983 39.0198 2.01456 40.1508C0.966596 43.0993 0.182404 46.599 0.0517053 50.6001C0.0469526 50.7094 0.0469526 50.821 0.0445763 50.9327V51.004C0.035071 51.2083 0.0255656 51.4126 0.0184366 51.6098C-0.00532682 52.3511 -0.00770316 53.1067 0.0136839 53.8527C0.246565 61.9475 4.0701 66.3619 7.23538 68.6428C10.2842 70.8358 14.1719 72 18.0929 72C19.8015 72 21.5172 71.7791 23.1735 71.3253C28.0093 69.9995 31.0415 67.1365 33.368 64.5016C33.3799 64.4873 33.3917 64.4731 33.406 64.4612C34.1688 63.5964 34.8746 62.6793 35.5043 61.7313C35.8964 61.2466 37.4339 59.3601 38.4011 58.1769C38.4438 58.1246 38.4842 58.07 38.5246 58.0153C38.8383 57.5853 39.0712 57.1125 39.2185 56.6135C40.0811 56.3688 40.8701 55.8675 41.4689 55.1476C43.187 53.0877 46.5543 49.3456 48.2653 48.084C48.5813 47.8511 48.8451 47.5826 49.0661 47.288C49.7029 47.4092 50.3469 47.471 50.9933 47.471C52.9466 47.471 54.9071 46.9174 56.7179 45.8268C57.7064 45.2305 58.5881 44.5272 59.3509 43.7241C59.4982 43.8501 59.6479 43.9712 59.8024 44.09C62.9011 46.485 66.8506 47.1811 70.9213 46.0526C72.7083 45.5584 74.3218 44.6911 75.6906 43.5198C77.6772 45.6914 80.3458 46.9126 83.0691 46.9126C83.8866 46.9126 84.7064 46.8033 85.5167 46.5753C86.9259 46.1809 88.2353 45.5251 89.3712 44.6745C90.2813 45.0404 91.3245 45.3469 92.5151 45.4942C96.3671 45.9765 100.269 44.8337 103.513 42.3319C104.047 42.6407 104.627 42.9211 105.247 43.1444C110.692 45.1141 116.412 43.4842 119.824 38.9866C120.927 37.5301 121.689 35.8551 122.041 34.1278C122.93 31.1056 122.509 27.9005 120.917 25.3179C121.354 24.9425 121.723 24.4744 121.996 23.9398ZM88.9315 38.1597C87.0281 41.8685 82.1447 43.2846 79.1648 39.0436C79.1838 39.084 79.2028 39.1267 79.2218 39.1647C75.9021 34.9665 77.6463 26.4773 78.7252 22.4976C79.0602 21.2645 79.5711 19.6822 80.1367 18.0689C80.486 17.052 80.8496 16.0684 81.2108 15.1394C81.7716 13.6782 82.3134 12.3667 82.7293 11.4805C82.677 11.6064 82.6271 11.7347 82.5748 11.8654C82.6366 11.7276 82.6984 11.5874 82.7578 11.4567C80.9518 11.528 78.4661 11.3783 78.4661 11.3783C78.4661 11.3783 80.429 10.15 82.8505 8.54622C82.8386 8.55335 82.8243 8.56047 82.8101 8.5676C83.245 8.24448 83.965 7.79305 84.7896 7.30836C85.9777 6.59321 87.1683 5.93983 88.1141 5.44564C89.0195 4.95857 89.7419 4.58793 89.9938 4.47626C89.9914 4.48101 89.989 4.49052 89.9866 4.49527C90.0009 4.48814 90.0104 4.48339 90.0104 4.48339L89.4068 6.30335C89.2286 6.85931 89.067 7.36301 88.9981 7.55071C89.0004 7.53883 89.0028 7.52932 89.0052 7.51982L87.0756 13.3408C87.0756 13.3408 87.5152 13.2363 88.1283 13.0842C88.1236 13.0842 88.1212 13.0842 88.1165 13.0842C88.6701 12.9227 89.4638 12.7255 90.3051 12.5378C90.3122 12.5354 90.3217 12.533 90.3288 12.5306C91.9994 12.0958 93.7745 11.9082 93.7745 11.9082C93.7745 11.9082 92.6434 14.2698 91.0536 15.7857C89.4662 17.3015 87.1707 18.392 85.6427 18.6439C85.6427 18.6439 83.8818 23.4243 82.9931 28.7748C82.3942 32.3744 81.7217 36.1877 85.5001 37.1951C86.2653 37.3994 87.0637 37.3852 87.9311 37.0312C87.0756 35.8337 86.5481 34.3345 86.4198 32.6048C86.3176 31.4905 86.377 30.1315 86.8356 28.6109C86.8617 28.5254 86.8855 28.4398 86.914 28.3567C86.9212 28.3329 86.9283 28.3068 86.9378 28.283C86.9497 28.2498 86.9616 28.2189 86.9734 28.188C87.0281 28.0288 87.0851 27.8744 87.1469 27.7223C87.1517 27.7128 87.154 27.7033 87.1588 27.6914C88.0333 25.5151 89.4686 24.0586 90.4476 23.2603C90.4762 23.2366 90.5047 23.2152 90.5332 23.1914C90.5641 23.1677 90.5926 23.1439 90.6235 23.1201C90.9419 22.8683 91.2223 22.6758 91.4338 22.5499C91.4338 22.5499 91.4338 22.5523 91.4314 22.5523C91.4718 22.5262 91.498 22.5143 91.498 22.5143C91.498 22.5143 89.4543 22.835 87.7671 23.8804C89.2167 21.6352 92.5341 20.2286 94.4256 19.9673C94.4256 19.9673 93.4418 19.6988 92.4652 19.7297C91.6334 19.7558 90.9657 19.8651 90.1292 20.0362C92.8763 17.722 104.665 14.9137 106.203 25.7218C107.282 33.2915 100.713 41.0394 93.3682 40.1222C91.593 39.9037 90.0864 39.2194 88.9315 38.1597ZM69.8662 40.797C65.8193 41.9184 62.3593 40.3598 60.4654 37.0716C60.4654 37.0739 60.4678 37.0763 60.4678 37.0787C59.9331 36.2329 59.5505 35.2088 59.2986 34.0898C59.2915 34.066 59.2867 34.0399 59.282 34.0137C59.2748 33.9829 59.2701 33.952 59.2629 33.9211C58.9968 32.7426 58.8756 31.4477 58.9255 30.0555C58.9279 30.0008 58.9326 29.9485 58.935 29.8963C58.973 28.5753 59.137 27.2495 59.4079 26.0188C59.415 25.9879 59.4222 25.9594 59.4293 25.9285C59.4554 25.8144 59.4816 25.7028 59.5077 25.5911C60.9573 19.4707 64.5551 17.5652 64.5551 17.5652C64.5551 17.5652 63.6093 17.7244 62.6682 18.0404C62.0623 18.2447 61.366 18.5251 60.4155 18.9765C60.4155 18.9765 63.3811 14.8828 69.082 14.5929C78.5065 14.113 77.6392 27.967 71.2254 30.552C67.8083 31.9301 64.8093 30.6922 63.8659 28.5064C63.8612 29.3759 63.9586 30.2693 64.1725 31.165C64.883 34.1325 66.5797 35.9834 69.5097 36.1164C70.1181 36.1354 70.7003 36.0452 71.2587 35.8788C71.2967 35.867 71.3347 35.8551 71.3728 35.8432C71.3894 35.8385 71.4084 35.8313 71.425 35.8266C71.7126 35.7315 72.0001 35.6151 72.2853 35.4821C72.5895 35.3371 72.8865 35.1732 73.174 34.995C73.2738 34.9332 73.3713 34.8667 73.4687 34.8002C73.5257 34.7622 73.5804 34.7218 73.6374 34.6814C73.7182 34.622 73.7966 34.5626 73.8751 34.5008C73.8988 34.4818 73.9226 34.4628 73.9463 34.4438C74.6355 33.8783 75.2082 33.1822 75.5979 32.3601C75.6098 32.334 75.6217 32.3055 75.6312 32.2793C76.1991 33.7049 75.1369 39.3382 69.8662 40.797ZM45.4707 39.0816C45.2402 38.8179 45.0263 38.5375 44.8243 38.2429C44.2302 37.3876 43.7668 36.4752 43.4722 35.5961C42.8401 33.7191 42.6167 32.0298 42.6571 30.5354C42.6666 30.0436 42.6999 29.5636 42.764 29.1122C42.9826 27.5584 43.5292 26.1756 44.2136 25.0066C44.2445 24.952 44.2754 24.8997 44.3063 24.8474C44.3372 24.7952 44.3681 24.7429 44.4013 24.693C45.5634 22.8231 46.8775 21.8799 46.8775 21.8799C46.8775 21.8799 46.0481 22.0937 45.0786 22.5475C44.3752 22.8754 43.8833 23.1724 43.8833 23.1724C43.8833 23.1724 47.6165 16.9475 53.2698 18.1568C58.9041 19.3638 58.0677 30.7682 52.0317 32.4837C48.9615 33.3556 47.1793 32.037 46.5519 30.0222C46.5258 31.4477 47.0177 33.0301 47.6355 34.3107C48.9496 37.0383 51.2476 37.8319 53.6833 37.2878C53.7641 37.2688 53.8401 37.2498 53.9162 37.2284C54.1586 37.1642 54.3891 37.0906 54.6125 37.0074C54.6267 37.0027 54.641 36.9979 54.6552 36.9908C54.7051 36.9718 54.7527 36.9528 54.8002 36.9338C55.4252 36.6724 55.9456 36.335 56.3757 35.962C56.39 35.9477 56.4066 35.9359 56.4208 35.9216C56.4494 35.8979 56.4755 35.8717 56.5016 35.848C56.7369 35.627 56.9603 35.3775 57.1789 35.0948C57.59 34.5578 58.1746 33.5694 58.3813 32.4765C58.3837 32.4575 58.3861 32.4433 58.3861 32.4433C58.3861 32.4433 58.3885 32.4623 58.3932 32.4955C58.4312 32.6666 58.4431 32.8733 58.4312 33.1085C58.474 34.7004 58.1888 38.787 54.4627 41.0322C50.8911 43.1753 47.588 41.5716 45.4707 39.0816ZM106.495 32.17C106.823 32.486 107.45 32.9303 107.838 33.1442C109.242 33.9235 110.323 33.9306 111.11 33.5837C111.143 33.5694 111.174 33.5552 111.205 33.5386C111.702 33.2938 112.075 32.9066 112.331 32.4884C112.538 32.1178 112.643 31.7043 112.631 31.2886C112.6 30.9084 112.469 30.4974 112.239 30.0768C111.82 29.3783 111.288 28.7653 110.468 28.1476C110.475 28.15 110.48 28.1547 110.487 28.1571C110.433 28.1167 110.383 28.0739 110.326 28.0335C109.972 27.7793 108.327 26.5795 107.434 26.0283C107.322 24.9615 107.187 24.137 106.849 23.2175C106.514 22.3004 106.158 21.4903 105.338 20.509C105.421 20.3403 105.537 20.1312 105.675 19.8984C105.647 19.934 105.618 19.9697 105.59 20.0053C106.92 17.3134 109.888 15.2297 112.876 14.8258C112.961 14.8115 113.049 14.802 113.137 14.7901C113.151 14.7878 113.168 14.7854 113.182 14.7854C113.386 14.7593 113.593 14.7379 113.809 14.7236C113.089 14.3173 112.562 14.1677 111.839 13.9301C111.091 13.683 110.043 13.4359 110.043 13.4359C110.043 13.4359 112.764 12.7207 115.432 13.1246C116.511 13.2862 117.959 13.6069 119.192 14.094C119.608 14.2271 120.67 14.7474 121.043 15.1394C121.06 15.1537 121.081 15.1679 121.098 15.1845C121.098 15.1845 120.941 15.5196 120.689 16.0494C120.283 16.9118 119.658 18.2257 119.249 19.0502C118.914 19.7392 118.574 20.4282 118.275 21.0222C116.583 19.5016 112.578 19.1595 111.965 21.0293C111.103 23.669 114.663 24.4625 116.761 27.1687C120.839 32.4243 114.824 40.8208 107.049 38.0077C105.925 37.599 104.86 36.7674 104.219 36.2447C105.1 35.1946 106.046 33.4269 106.495 32.17ZM34.9364 38.6088C31.1318 40.8778 34.972 54.4087 34.972 54.4087L31.6285 58.5428C29.4138 61.8121 26.5241 64.801 22.0923 66.0174C20.4383 66.4712 18.6252 66.6376 16.8073 66.4807C12.7913 66.59 4.51209 63.0333 4.49071 52.2466C4.49071 51.7571 4.50021 51.2796 4.51922 50.8068C4.5715 48.9322 4.78537 47.1787 5.11806 45.5489C6.31811 39.4499 9.03189 35.2207 11.3488 32.6357C13.0455 30.6233 14.3882 29.6088 14.3882 29.6088C14.3882 29.6088 11.7148 31.013 9.57845 32.6238C6.8718 34.6647 5.30104 36.0523 5.30104 36.0523C5.30104 36.0523 7.54193 30.5877 13.1192 25.2727C13.1097 25.2798 13.0978 25.287 13.0883 25.2941C13.3283 25.0636 13.5755 24.8379 13.8297 24.6122C14.2385 24.2416 14.6638 23.8733 15.1082 23.5098C16.332 22.5024 17.7744 21.5496 19.205 20.7205C20.6047 19.8913 21.9948 19.1951 23.2709 18.6795C24.1169 18.3231 24.8369 18.0737 25.3407 17.962C25.2171 18.6273 25.0959 19.34 24.9747 20.0766C24.9462 20.2809 24.9177 20.4829 24.8916 20.6896C24.8892 20.6801 24.8821 20.6729 24.8797 20.6634C24.0622 25.7622 23.3493 31.7519 23.3493 31.7519C23.3493 31.7519 21.27 32.4741 17.7435 36.7389C14.3953 40.7899 11.7528 46.637 13.383 53.0069C15.3577 60.7144 24.3878 59.0726 28.0426 55.4565C28.38 55.1215 28.6842 54.7888 28.9575 54.4657C27.7574 47.3712 26.2841 35.2872 28.0497 25.8073C27.3867 26.216 26.391 26.722 25.3859 27.1925C27.3749 24.1608 30.293 20.8986 33.8385 17.9834C34.4872 17.425 35.1003 16.938 35.6136 16.5911C35.6421 16.5697 35.6707 16.5483 35.6992 16.5246C35.6992 16.5269 35.6968 16.5293 35.6968 16.5317C35.6992 16.5293 35.7015 16.5293 35.7015 16.5269C35.6398 16.7408 35.5685 16.9903 35.4948 17.2516C33.3989 24.9615 32.9141 33.6455 32.9141 33.6455C32.9141 33.6455 32.9664 33.5433 33.0662 33.3817C33.5486 32.5193 34.2971 31.8422 34.9696 31.3812C34.9791 31.3741 34.9886 31.3693 34.9981 31.3622C35.1645 31.2505 35.3261 31.146 35.4758 31.0605C36.9396 30.2265 38.028 30.3786 39.1068 31.4311C39.0997 31.4287 39.0902 31.4287 39.0831 31.4264C41.4618 33.8213 42.3173 40.5523 42.1533 44.4274C43.0064 44.0283 44.5487 43.4842 45.6988 43.4937C42.871 45.5821 38.0969 51.3152 38.0969 51.3152C38.0969 51.3152 38.0969 51.3057 38.0969 51.2938C38.0969 51.2986 38.0945 51.3033 38.0945 51.3081C38.0945 51.2392 38.0921 51.1608 38.0921 51.0776C38.0826 50.7878 38.0636 50.2508 38.028 49.557C37.9424 48.0341 37.7832 45.986 37.567 44.33C37.327 42.4982 36.9895 40.6925 36.5024 39.5877C36.4929 39.5687 36.4857 39.5496 36.4762 39.5306C36.4525 39.4807 36.4287 39.4332 36.4049 39.3857C36.3669 39.3121 36.3289 39.2408 36.2885 39.1743C36.2837 39.1671 36.2814 39.16 36.2766 39.1552C36.1934 39.0174 36.1055 38.8986 36.0152 38.8012C36.001 38.787 35.9891 38.7727 35.9748 38.7585C35.673 38.452 35.3285 38.3759 34.9364 38.6088ZM35.5613 61.641C35.5756 61.6196 35.5899 61.5982 35.6017 61.5768C35.597 61.5887 35.5827 61.6101 35.5613 61.641ZM41.1362 52.306C41.1362 52.2822 41.1339 52.2513 41.1339 52.2181C41.1362 52.2466 41.1362 52.2751 41.1362 52.306Z" fill="#F18D2F"/>
<path d="M51.373 29.0669C52.276 28.796 52.8986 27.9288 53.1957 26.9261C53.2004 26.9143 53.2028 26.9 53.2052 26.8881C53.545 25.7073 53.4381 24.3506 52.8155 23.5642C52.8131 23.5595 52.8083 23.5547 52.806 23.5523C52.7656 23.5024 52.7228 23.4549 52.6776 23.4098C52.6586 23.3908 52.6372 23.3718 52.6182 23.3528C52.5802 23.3171 52.5422 23.2839 52.5018 23.253C52.4804 23.2363 52.4566 23.2221 52.4352 23.2055C52.3877 23.1722 52.3426 23.1413 52.2927 23.1128C52.2903 23.1128 52.2879 23.1104 52.2855 23.1104C51.9481 22.9275 51.5299 22.8562 51.0308 22.9417C48.5927 23.3551 46.6227 26.5721 46.5752 29.6513C47.4117 28.461 48.2838 27.5486 48.7353 27.0473C48.9206 28.682 49.952 29.4921 51.373 29.0669Z" fill="#F18D2F"/>
<path d="M68.3476 20.5799C66.0806 21.2903 64.265 24.0725 63.9229 27.4202C64.7356 26.4579 65.5103 25.7166 66.0426 25.2058C66.1162 27.28 68.388 28.2826 70.1465 26.7311C70.2487 26.6409 70.3437 26.5411 70.4364 26.4365C70.7786 26.0017 71.0376 25.5408 71.2182 25.0727C71.6127 23.9846 71.6531 22.723 71.28 21.7845C71.1612 21.4946 71.0044 21.2404 70.8166 21.0313C70.7929 21.0052 70.7691 20.979 70.7453 20.9553C70.7311 20.941 70.7168 20.9268 70.7026 20.9149C70.1798 20.4349 69.4051 20.2496 68.3476 20.5799Z" fill="#F18D2F"/>
<path d="M100.777 30.4331C100.903 30.0625 101.003 29.7061 101.081 29.3616C101.815 25.9616 100.382 24.2272 98.9518 23.417C98.9423 23.4123 98.9328 23.4052 98.9233 23.4004C98.8544 23.3624 98.7855 23.3267 98.7166 23.2935C97.2836 22.5902 95.4087 22.4952 93.5124 23.0393C95.4705 23.1462 97.1506 24.2177 97.1506 24.2177C97.1506 24.2177 94.1873 24.2153 92.4193 27.9954C90.9531 31.1269 91.4687 33.9091 93.8284 34.8143C96.9581 36.0094 99.8287 33.232 100.777 30.4331Z" fill="#F18D2F"/>
<path d="M128.509 23.1652C128.509 22.4952 128.117 22.3027 127.475 22.3027H126.57C126.406 22.3027 126.249 22.4097 126.249 22.6235V24.8117C126.249 25.0327 126.399 25.1396 126.57 25.1396C126.748 25.1396 126.891 25.0327 126.891 24.8117V23.9778H127.076L127.732 24.9115C127.846 25.0754 127.953 25.1396 128.103 25.1396C128.281 25.1396 128.409 25.0113 128.409 24.8901C128.409 24.7975 128.395 24.7119 128.316 24.605L127.846 23.9778C128.181 23.9564 128.509 23.695 128.509 23.1652ZM127.44 23.4646H126.891V22.8159H127.44C127.646 22.8159 127.825 22.873 127.825 23.1367C127.825 23.4075 127.646 23.4646 127.44 23.4646Z" fill="#F18D2F"/>
<path d="M127.312 21.0552C125.922 21.0552 124.624 22.0388 124.624 23.7423C124.624 25.4459 125.922 26.4295 127.312 26.4295C128.702 26.4295 129.999 25.4459 129.999 23.7423C129.999 22.0388 128.702 21.0552 127.312 21.0552ZM127.312 25.7904C126.264 25.7904 125.437 24.9564 125.437 23.7447C125.437 22.533 126.264 21.6991 127.312 21.6991C128.345 21.6991 129.187 22.533 129.187 23.7447C129.187 24.9564 128.345 25.7904 127.312 25.7904Z" fill="#F18D2F"/>
</g>
<defs>
<clipPath id="clip0">
<rect width="130" height="72" fill="white"/>
</clipPath>
</defs>
</svg>
