<svg width="121" height="101" viewBox="0 0 121 101" fill="none" xmlns="http://www.w3.org/2000/svg">
<path d="M54.336 85.1716L55.7213 83.7178L53.4971 85.5167L54.336 85.1716Z" fill="#F18D2F"/>
<path d="M43.2998 78.7881L44.4997 80.8906L43.4364 77.0234L43.2998 78.7881Z" fill="#F18D2F"/>
<path d="M48.1167 75.4225L44.8291 70.3608L49.0093 79.997L48.1167 75.4225Z" fill="#F18D2F"/>
<path d="M94.1534 55.2372V54.9019L93.3242 56.111L94.1193 55.4648C94.1413 55.3865 94.1534 55.3106 94.1534 55.2372Z" fill="#F18D2F"/>
<path d="M117.639 49.8159L120.032 44.3137C120.871 42.1647 121.395 40.7402 120.624 39.5556C119.856 38.3709 118.888 38.4444 117.481 38.4419C117.481 38.4419 109.679 38.4321 107.903 38.4321C104.511 38.4321 102.204 40.5077 101.369 41.4011C101.209 41.5748 100.991 41.8221 100.75 42.1329C98.8257 40.1357 96.0942 38.623 92.5871 38.623H89.9116C89.0946 38.623 88.319 38.7063 87.5849 38.858L68.9592 29.3173L85.9289 39.3377C85.4997 39.4993 85.09 39.6878 84.6973 39.8933C78.9586 36.5695 54.8991 22.6354 54.8991 22.6354L62.6743 28.8669L20.4646 4.43749L27.5666 10.324L10.3555 0L25.1863 33.7425L22.4596 25.4917L29.2251 40.1748C28.8324 40.4661 28.4641 40.7794 28.1154 41.1049C27.3983 39.7049 26.4472 38.3979 25.2838 37.2548C22.3596 34.3814 18.4062 32.8002 14.1577 32.8002C14.1577 32.8002 4.08268 32.7904 2.86568 32.7904C0.917018 32.7904 0.0146333 33.6936 0.0146333 35.6517L0.00975551 63.0843C0.00975551 63.0843 0 62.6927 0 63.914C0 65.8697 0.902384 66.7753 2.85105 66.7753L3.74855 66.7802L6.05329 66.7728H14.1894C18.5233 66.7728 23.0328 64.7976 26.0521 61.4836C28.6007 65.2578 32.9956 67.2207 35.7978 67.2477C35.9905 67.3015 36.1881 67.3431 36.388 67.3725C37.1563 69.8103 40.8536 82.5623 40.8536 82.5623L38.4099 78.487L45.2485 98.0482L43.7144 101L54.1382 91.8166L52.4871 94.7562L78.3026 70.9484L74.3321 76.245L85.7119 66.1781C86.9582 66.6823 88.3581 66.9784 89.9116 66.9784H92.5871C94.3699 66.9784 95.9479 66.5844 97.3258 65.9382C98.1087 66.7973 99.2233 67.2991 100.401 67.2991H100.409C100.409 67.2991 106.35 67.2893 107.959 67.2893H109.025C109.725 67.2893 112.113 67.2893 114.137 66.6284C116.342 65.9088 117.849 64.6434 119.12 62.7637C120.685 60.4507 120.607 57.2957 120.52 55.7954C120.42 54.1065 120.063 52.0359 117.639 49.8159ZM22.2694 16.7024L20.15 14.152V12.0617L18.9062 9.33757L19.0915 9.43793L17.5477 7.05397L19.3647 9.58233L21.5987 10.7719L17.5697 5.29904L21.5743 10.1526V9.09282L20.6402 6.97075L21.9011 8.92883L22.0231 10.7449L22.0913 11.0313L40.7878 20.9832L43.4852 21.9451L44.8436 23.142L65.3082 34.0338L27.213 19.3458L29.9104 30.4481L30.1933 31.4908L30.0982 31.2191L30.7177 33.767L30.7225 33.7744L30.7177 33.7695L31.4542 36.802L28.5056 30.3502L27.2642 28.4313L27.1764 27.4424L22.2694 16.7024ZM38.9489 66.369L36.9636 61.1727L37.1441 64.1931C37.1441 64.1931 36.8709 63.4759 36.7295 63.0623H35.8612C33.7492 63.0623 28.2129 60.4066 28.2129 54.8628V49.4537C28.2129 48.0194 29.425 45.119 31.9176 43.391L31.7542 43.014L31.9883 43.0654L30.8762 40.0598L33.3443 42.6102C33.5882 42.5074 33.8394 42.4168 34.1004 42.3385L34.2052 39.9594L35.0808 41.6703L35.2881 41.1147L35.6637 42.0423C35.9003 42.0228 36.1368 42.0081 36.3856 42.0081H39.0586C44.5827 42.0081 47.2313 47.3365 47.2313 49.4561V54.8653C47.2313 57.893 45.5802 60.0566 43.7364 61.4004L43.7388 61.4028L43.7364 61.4004L42.9998 60.6857L43.9071 63.9459L42.9047 61.9486C42.7852 62.0196 42.6657 62.0832 42.5438 62.1469L40.5658 57.9762C40.5951 57.9615 40.6244 57.9517 40.6512 57.937C40.5366 57.4646 40.378 56.838 40.378 56.838L41.8975 58.9626L41.4487 57.3814C42.056 56.8307 42.4755 56.0915 42.4755 55.3377V49.7449C42.4755 48.2396 40.8048 46.7907 39.3049 46.7907H36.1295C34.6272 46.7907 32.959 48.2396 32.959 49.7449V55.3377C32.959 56.8429 34.6272 58.2919 36.1295 58.2919H36.4466L36.4563 58.7912L37.0392 58.4021L37.7416 61.2095L37.6148 58.9307L38.7562 63.0672H38.1196L38.9489 66.369ZM56.877 62.9081L56.8819 62.2766C56.8819 62.1763 56.9209 49.8697 56.9209 48.1393C56.9209 48.0903 56.9234 48.0487 56.9258 48.0169L56.9405 47.875H60.9134V62.9081H68.7032V48.3914H69.6153V58.0178C69.6153 60.1521 71.4225 61.907 72.5395 62.7906L72.2664 62.9864C71.0957 62.0563 69.2982 60.2622 69.2982 58.0178V48.7096H69.0202V63.2287H60.5963V48.1931H57.238C57.238 50.1047 57.199 62.1787 57.199 62.2791L57.1941 63.2287H48.5532V57.5674C47.9312 59.6797 46.5752 61.5546 44.6924 62.8665L44.8046 63.7647L44.2656 63.1479C44.2266 63.1724 44.19 63.1969 44.151 63.2189L44.7827 66.0067L43.3364 63.8137L43.1413 63.4C43.1754 63.3829 43.212 63.3682 43.2462 63.3511L43.3705 63.2899L44.0851 64.3742L43.7876 63.0647L43.8876 63.006C43.9949 62.9424 44.1022 62.8763 44.2071 62.8077L44.3217 62.7343L44.3607 62.7784L44.3534 62.7147L44.4339 62.6609C46.7313 61.092 48.2337 58.6664 48.5532 56.001L48.8702 53.3723V62.913H56.877V62.9081ZM50.197 61.7161V48.7904C50.197 46.9302 50.9189 44.9672 52.2407 43.6602C53.4748 42.4413 55.2528 41.8147 56.8966 41.8147H60.8402V46.5655C60.8402 46.5655 57.9941 46.5704 56.9551 46.5704C55.86 46.5704 55.5113 47.4466 55.5113 48.0438V61.7137H50.197V61.7161ZM62.1304 42.0399V37.5975L67.6374 39.8811L62.1304 42.0399ZM67.5862 41.592L67.5837 61.6867L62.2523 61.7014L62.2645 43.506L67.5862 41.592ZM79.761 41.7755V46.5116H76.3564V55.7733C76.3564 56.3045 76.4003 56.6985 77.0783 57.2346C77.6855 57.7167 78.3977 58.1573 78.7416 58.3311L73.7565 61.9119C73.4663 61.7234 72.8249 61.2731 72.2273 60.6392C71.4201 59.785 71.264 59.1608 71.1494 58.7668C71.0347 58.3751 71.0079 57.7926 71.0079 57.7926V46.5165C71.0079 46.4945 69.0544 46.5116 69.0544 46.5116V41.7682H71.0152V37.5534L76.3515 39.6951V41.7707H79.761V41.7755ZM80.4439 57.1097L80.1634 57.3104C79.9537 56.5223 79.8488 55.7122 79.8488 54.8996V50.1365C79.8488 49.6666 79.8854 49.1869 79.961 48.7096H77.8368V54.9044C77.8368 55.9398 79.1708 56.8111 80.1586 57.3153L79.8708 57.5234C78.8318 56.9727 77.5197 56.0499 77.5197 54.9069V48.3938H80.3342L80.3025 48.5799C80.2122 49.1012 80.1659 49.625 80.1659 50.139V54.902C80.1659 55.6436 80.2634 56.3852 80.4439 57.1097ZM81.5463 55.4723C81.5316 55.2716 81.5195 55.0709 81.5195 54.8628V49.4537C81.5195 47.334 84.1656 42.0056 89.6921 42.0056H92.3651C97.8916 42.0056 100.538 47.334 100.538 49.4537V54.8628C100.538 60.4066 94.9991 63.0623 92.8871 63.0623H89.1678C88.519 63.0623 87.5459 62.8102 86.5118 62.3035L87.6849 61.2706L86.1533 61.9413L88.5995 59.8804C88.5995 59.8804 88.0337 60.1447 87.3411 60.4678L91.1603 57.2248C91.8774 56.7695 92.5115 56.3608 92.5115 56.3608L90.6555 58.2821L92.2749 57.33L91.492 58.2895H92.6139C94.1163 58.2895 95.7844 56.8405 95.7844 55.3352V53.2988L100.094 49.6421L95.2113 48.1931C94.5943 47.3781 93.5724 46.7882 92.6163 46.7882H89.4409C87.941 46.7882 86.2704 48.2372 86.2704 49.7425V52.2464L87.2776 52.2023L82.217 55.837L83.5267 54.3856L81.5463 55.4723ZM94.1528 54.7282V54.6866L94.4699 54.4174V55.2373C94.4699 55.7684 94.0504 56.3241 93.3992 56.652L92.9041 56.9017L92.9529 56.8209L92.9358 56.8332L92.9041 56.8429C92.8505 56.8576 92.7944 56.8723 92.7407 56.8846L92.3456 56.9727L93.1139 55.8541L91.5627 56.9531H91.4847L93.8553 54.9387L94.1528 54.7282ZM88.7507 50.883L88.5166 51.1327L89.1092 50.8855L87.9654 51.7054L87.2508 52.004L87.9947 51.2184L87.6093 51.2257V49.8037C87.6093 49.4977 87.7557 49.1771 88.0069 48.898L88.3215 49.0278C88.0727 49.2652 87.9239 49.5442 87.9239 49.8037V50.9026L88.7507 50.883ZM38.8196 48.4061H36.671C35.5222 48.4061 34.6321 49.155 34.6321 49.8012V55.2373C34.6321 55.881 35.5222 56.6325 36.671 56.6325H36.9831L37.0709 56.9506H36.671C35.3223 56.9506 34.315 56.0475 34.315 55.2373V49.8012C34.315 48.9935 35.3223 48.0879 36.671 48.0879H38.8196C40.1683 48.0879 41.1731 48.9935 41.1731 49.8012V55.2373C41.1731 55.7905 40.7 56.3901 39.9683 56.7132L39.8317 56.4244C40.4488 56.1576 40.8585 55.673 40.8585 55.2373V49.8012C40.8585 49.155 39.9683 48.4061 38.8196 48.4061ZM52.4895 86.3316L48.7629 89.3446L50.0677 92.9254L48.5263 89.5355L48.4946 89.5599L48.9068 93.1701L48.1946 89.8023L47.941 90.0079L47.5044 93.4149L47.763 90.1523L47.1752 90.6271L44.6875 81.5808L42.8706 78.7293L43.1779 76.0933L36.01 50.0362L44.0534 68.5743L44.1534 67.7152L44.0827 68.6404L44.7753 70.2386L48.5434 75.2415L49.1702 80.3276L91.4554 49.9309L88.7532 48.0757C88.7897 48.0512 88.8239 48.0316 88.8556 48.0169C89.1044 47.919 89.5409 47.804 89.5409 47.804L92.1334 47.8187L97.9209 49.6079L59.7622 80.4524L54.743 85.6609L52.4895 86.3316ZM116.661 63.1504H116.361V64.0291H116.232V63.1504H115.932V63.0427H116.659V63.1504H116.661ZM117.625 64.0291L117.6 63.5959C117.593 63.4588 117.583 63.2924 117.586 63.17H117.581C117.547 63.285 117.508 63.4074 117.456 63.5445L117.283 64.0242H117.188L117.03 63.5542C116.983 63.4147 116.944 63.2875 116.915 63.17H116.912C116.91 63.2924 116.903 63.4588 116.893 63.6056L116.866 64.0291H116.744L116.812 63.0427H116.973L117.142 63.52C117.183 63.6424 117.217 63.7501 117.242 63.8529H117.247C117.271 63.7525 117.308 63.6448 117.349 63.52L117.525 63.0427H117.686L117.747 64.0291H117.625V64.0291ZM118.449 56.7573C118.027 61.9413 115.013 64.4623 109.24 64.4623H99.4428L102.896 55.8101H108.032C106.667 55.2496 103.899 53.8765 102.235 51.4631V54.8996C102.235 60.321 97.6429 64.7315 91.9969 64.7315H90.0897C88.002 64.7315 86.007 64.1074 84.3412 63.0182L84.5949 62.8028C86.1948 63.8284 88.0995 64.4134 90.0897 64.4134H91.9969C97.4673 64.4134 101.918 60.1447 101.918 54.8996V50.347L102.213 50.8414C103.869 53.6121 107.081 55.1003 108.389 55.6094C108.567 55.6852 108.723 55.7562 108.867 55.8247L109.493 56.1282H103.113L99.9159 64.1441H109.245C114.822 64.1441 117.732 61.7186 118.139 56.7328C118.551 51.6565 114.854 49.7841 113.274 48.9862L113.242 48.969C113.11 48.9029 112.993 48.8442 112.893 48.7879C112.718 48.69 112.503 48.5774 112.261 48.4501L112.169 48.4012C112.091 48.3596 112.003 48.3131 111.905 48.2617L111.349 47.9631H115.164L118.62 39.9472H108.042C103.862 39.9472 101.718 43.6284 101.296 46.1029L101.213 46.59L100.999 46.1445C99.3745 42.7913 95.843 40.6227 91.9969 40.6227H90.0897C86.507 40.6227 82.4828 42.7717 81.3 45.3123L80.9975 45.9634V40.3486H77.4831V38.9021L69.6543 35.5122V40.3437H68.5398V39.1273L60.9305 35.6761L60.9183 40.4294H57.4575C54.7235 40.4294 52.57 41.2665 51.0603 42.9186C49.2312 44.9183 48.897 47.5568 48.858 48.9519L48.8044 51.0005L48.5434 48.9666C47.9337 44.2085 43.7022 40.6203 38.7001 40.6203H36.7953C36.5539 40.6203 36.3051 40.6301 36.0368 40.6497L35.9198 40.657L35.3979 39.2961L35.0174 40.3462L33.5175 36.9415L33.6272 41.1171L33.5175 41.1539C33.2907 41.2297 33.0687 41.313 32.859 41.4011L32.7419 41.45L28.9226 36.0971L30.9884 41.8857L30.1738 41.3741L30.5689 42.7301L30.486 42.7962C29.4811 43.5941 28.6592 44.5511 28.0471 45.6452L27.869 47.197L27.7056 45.8753C26.9471 39.7587 21.0938 34.9663 14.3796 34.9663H2.96811V64.362H14.3796C19.6866 64.362 24.6668 61.2951 26.7691 56.7304L26.9691 56.2947L27.0667 56.7646C27.991 61.1923 32.081 64.406 36.788 64.406H37.0856L37.3026 64.7732L37.3514 64.406H37.6806L39.1025 67.0616L39.1879 64.6238L39.4683 65.6445L39.3781 68.2487L37.6002 64.9273L37.4929 65.7204L36.9026 64.7217H36.7856C32.0859 64.7217 27.9812 61.6133 26.8545 57.2664C24.5985 61.7161 19.6427 64.6777 14.3723 64.6777H2.65106V34.6457H14.3796C21.0231 34.6457 26.8447 39.2423 27.9251 45.2193C28.5202 44.2305 29.286 43.3542 30.203 42.6126L29.6324 40.6619L30.3786 41.1294L27.8544 34.0558L32.8492 41.056C32.9956 40.9972 33.1468 40.9409 33.3004 40.8871L33.1541 35.3335L34.9832 39.487L35.3832 38.3832L36.1246 40.3168C36.3563 40.3021 36.5734 40.2948 36.788 40.2948H38.6928C43.4364 40.2948 47.5093 43.4277 48.6263 47.7526C48.8166 46.2693 49.3604 44.2892 50.8189 42.6934C52.3919 40.9727 54.6235 40.0989 57.4502 40.0989H60.5939L60.6085 35.1719L68.8519 38.9094V40.0133H69.3324V35.0153L77.8002 38.694V40.0304H81.3097V44.6246C82.8243 42.1965 86.5899 40.307 90.0848 40.307H91.992C95.8015 40.307 99.3135 42.3703 101.072 45.6036C101.679 43.0483 103.908 39.629 108.04 39.629H119.098L115.366 48.2813H112.613C112.771 48.3645 112.915 48.4428 113.039 48.5113C113.137 48.5652 113.249 48.6215 113.376 48.6851L113.408 48.7022C115.047 49.5295 118.878 51.468 118.449 56.7573ZM108.045 47.3977C108.342 47.7501 109.359 48.4428 110.22 48.947C111.081 49.4537 113.071 50.3984 113.886 50.9173C114.703 51.4338 115.369 51.9526 115.939 52.8901C116.393 53.6635 116.734 54.6009 116.803 55.7391C116.871 56.8772 116.561 58.943 115.773 60.1056C114.986 61.2682 114.008 61.9364 112.766 62.3402C111.349 62.8028 110.006 62.7955 109.423 62.7955C107.813 62.7955 101.867 62.8053 101.867 62.8053L104.006 57.4891C104.006 57.4891 108.818 57.4818 109.557 57.4818C110.266 57.4818 111.154 57.4475 111.357 56.9898C111.559 56.5296 111.447 56.1503 111.071 55.7464C110.696 55.3426 110.008 54.8849 109.289 54.5642C108.567 54.2436 107.379 53.8128 106.262 53.0443C105.142 52.2757 103.85 51.1449 103.413 50.3054C102.977 49.4659 102.323 48.3327 102.604 46.4088C102.85 44.72 103.877 43.4252 104.294 42.9773C104.699 42.5441 106.011 41.3325 107.784 41.3325C109.557 41.3325 116.551 41.3423 116.551 41.3423L114.235 46.6389C114.235 46.6389 109.342 46.6414 108.489 46.6414C107.635 46.6414 107.745 47.0452 108.045 47.3977ZM26.4301 47.2435V52.4471C26.4301 58.5489 20.4573 63.0916 14.5113 63.0916H4.24852L4.2534 36.3394C5.4704 36.3394 14.4772 36.3492 14.4772 36.3492C21.6353 36.3468 26.4301 41.8979 26.4301 47.2435Z" fill="#F18D2F"/>
<path d="M15.0041 41.7193C15.0041 41.7193 12.2677 41.7095 11.6238 41.7095L9.57031 41.6997V57.7437H15.0236C18.0308 57.7437 21.3574 55.2814 21.3574 51.6247V48.2764C21.355 43.9074 18.0552 41.7193 15.0041 41.7193ZM20.0502 52.1436C20.0502 54.3268 17.3942 56.3926 14.5846 56.3926H10.9166V42.9504H14.5846C17.3942 42.9504 20.0502 45.0162 20.0502 47.1995V52.1436Z" fill="#F18D2F"/>
<path d="M20.4358 14.1105L21.8284 15.7308L20.1846 12.1353L20.4358 14.1105Z" fill="#F18D2F"/>
<path d="M27.9863 29.2119L27.4521 28.042L27.4668 28.3479L27.9863 29.2119Z" fill="#F18D2F"/>
<path d="M14.5854 43.2686H11.2344V56.0744H14.5854C17.2316 56.0744 19.7339 54.1628 19.7339 52.1435V47.1994C19.7339 45.1801 17.2316 43.2686 14.5854 43.2686Z" fill="#F18D2F"/>
<path d="M43.3191 22.1876L42.5947 21.9453L43.8215 22.5988L43.3191 22.1876Z" fill="#F18D2F"/>
</svg>
