<svg width="134" height="56" viewBox="0 0 134 56" fill="none" xmlns="http://www.w3.org/2000/svg">
<g clip-path="url(#clip0)">
<path d="M123.978 38.5717C123.62 38.5717 123.373 38.3232 123.373 37.9658V20.2116H117.341C116.983 20.2116 116.736 19.9642 116.736 19.6064V17.1574C116.736 16.7988 116.983 16.5507 117.341 16.5507H133.396C133.754 16.5507 134 16.799 134 17.1574V19.6063C134 19.9638 133.754 20.2116 133.396 20.2116H127.365V37.9656C127.365 38.3232 127.117 38.5717 126.759 38.5717H123.978ZM77.778 29.7078L74.6121 20.6251L71.4177 29.7078H77.778ZM84.7999 37.8544C84.9383 38.2131 84.7175 38.5717 84.332 38.5717H81.4688C81.0555 38.5717 80.8074 38.3796 80.6693 37.9925L79.0454 33.3147H70.152L68.5253 37.9925C68.3886 38.3798 68.1398 38.5717 67.7276 38.5717H65.03C64.6715 38.5717 64.4233 38.213 64.5611 37.8544L72.0232 17.1023C72.1613 16.7157 72.409 16.5516 72.8212 16.5516H76.5112C76.9246 16.5516 77.2 16.7158 77.3376 17.1023L84.7999 37.8544ZM106.189 35.5984C107.951 35.5984 109.135 34.7465 110.099 33.287L105.639 28.4969C103.931 29.4611 102.829 30.4232 102.829 32.3506C102.83 34.2502 104.371 35.5984 106.189 35.5984ZM107.428 19.4683C105.997 19.4683 105.171 20.3775 105.171 21.5884C105.171 22.5241 105.665 23.35 106.795 24.5615C108.75 23.4321 109.576 22.7444 109.576 21.5336C109.576 20.4041 108.86 19.4683 107.428 19.4683ZM119.628 37.8009C119.985 38.1866 119.765 38.5717 119.323 38.5717H115.826C115.359 38.5717 115.111 38.4611 114.808 38.1029L112.715 35.7917C111.311 37.6636 109.355 39.067 106.106 39.067C102.086 39.067 98.9184 36.6449 98.9184 32.4894C98.9184 29.2954 100.627 27.5884 103.215 26.1574C101.948 24.6986 101.371 23.1571 101.371 21.809C101.371 18.395 103.766 16.0557 107.373 16.0557C111.062 16.0557 113.321 18.231 113.321 21.4508C113.321 24.2034 111.339 25.7434 109.245 26.9004L112.33 30.232L114.064 27.2031C114.284 26.8458 114.532 26.7077 114.972 26.7077H117.643C118.084 26.7077 118.332 27.0113 118.057 27.4789L114.973 32.763L119.628 37.8009ZM92.1473 38.5717C92.5053 38.5717 92.7543 38.3232 92.7543 37.9658V20.2116H98.7838C99.1418 20.2116 99.3893 19.9642 99.3893 19.6064V17.1574C99.3893 16.7988 99.1418 16.5507 98.7838 16.5507H82.7298C82.3713 16.5507 82.124 16.799 82.124 17.1574V19.6063C82.124 19.9638 82.3714 20.2116 82.7298 20.2116H88.7592V37.9656C88.7592 38.3232 89.0079 38.5717 89.3654 38.5717H92.1473Z" fill="#F18D2F"/>
<path d="M10.6538 49.2826C15.3237 52.8975 21.1851 55.0695 27.5446 55.0695C34.5039 55.0695 40.8483 52.4857 45.6903 48.2444C45.749 48.1926 45.7201 48.1583 45.6622 48.1926C43.4894 49.6437 37.2968 52.8112 27.5448 52.8112C19.07 52.8112 13.7142 50.9203 10.6897 49.2321C10.6318 49.2036 10.6104 49.247 10.6538 49.2826ZM29.4143 50.6901C36.1927 50.6901 43.6412 48.8423 48.0961 45.1846C49.3151 44.1881 50.4764 42.8617 51.5163 41.0792C52.115 40.0535 52.7006 38.835 53.1775 37.6372C53.1986 37.5788 53.1626 37.5504 53.1187 37.6161C48.976 43.7125 36.9796 47.5151 24.5927 47.5151C15.8371 47.5151 6.41636 44.7152 2.72805 39.3691C2.69175 39.3197 2.65544 39.3408 2.67755 39.3976C6.11347 46.7006 16.5372 50.6901 29.4143 50.6901ZM22.0084 38.5748C7.91074 38.5748 1.26342 32.009 0.0576047 27.5283C0.0427347 27.4634 0 27.4776 0 27.5359C0 29.0443 0.150978 30.991 0.410735 32.2831C0.534652 32.912 1.04653 33.8991 1.797 34.6858C5.21068 38.2441 13.7214 43.23 28.4608 43.23C48.5424 43.23 53.1341 36.5406 54.0717 34.3408C54.7422 32.7675 55.0896 29.9243 55.0896 27.536C55.0896 26.9581 55.0751 26.4965 55.0532 26.0433C55.0532 25.9697 55.0107 25.9637 54.9959 26.0354C53.9924 31.4182 36.8349 38.5748 22.0084 38.5748ZM2.65544 15.724C1.84764 17.3271 0.95222 20.0317 0.686032 21.4315C0.569349 22.0313 0.61905 22.3193 0.829374 22.7669C2.51907 26.3519 11.0659 32.088 31.0022 32.088C43.1648 32.088 52.6131 29.0999 54.1438 23.6472C54.4256 22.6434 54.4408 21.5836 54.0787 20.1555C53.6741 18.5597 52.9164 16.6988 52.2751 15.3921C52.2539 15.3495 52.2166 15.3558 52.2242 15.4062C52.4624 22.558 32.5181 27.1674 22.4551 27.1674C11.5551 27.1674 2.46146 22.8245 2.46146 17.3408C2.46146 16.8139 2.57051 16.2869 2.70662 15.7384C2.72028 15.6883 2.67741 15.68 2.65544 15.724ZM45.7349 6.94301C45.8507 7.1244 45.9084 7.31797 45.9084 7.57854C45.9084 10.6377 36.5455 16.0496 21.641 16.0496C10.6897 16.0496 8.63937 11.987 8.63937 9.4034C8.63937 8.47985 8.99357 7.53486 9.77365 6.57514C9.81625 6.51807 9.78008 6.4961 9.73091 6.53857C8.30821 7.74425 7.00099 9.10091 5.85425 10.5654C5.30633 11.258 4.9662 11.8716 4.9662 12.2392C4.9662 17.5933 18.3916 21.4753 30.9447 21.4753C44.3203 21.4753 50.2897 17.1089 50.2897 13.2716C50.2897 11.9002 49.7559 11.0997 48.3903 9.54755C47.5038 8.53786 46.6653 7.71572 45.7778 6.90644C45.7349 6.87107 45.7051 6.89987 45.7349 6.94301ZM41.6344 3.88446C37.5064 1.41014 32.7128 0.00244141 27.5448 0.00244141C22.3409 0.00244141 17.4028 1.45931 13.2599 3.99914C12.0173 4.76394 11.3179 5.37683 11.3179 6.16467C11.3179 8.48708 16.7454 10.9842 26.3747 10.9842C35.904 10.9842 43.295 8.24903 43.295 5.61622C43.295 4.9878 42.7458 4.54812 41.6344 3.88446Z" fill="#F18D2F"/>
</g>
<defs>
<clipPath id="clip0">
<rect width="134" height="55.0701" fill="white"/>
</clipPath>
</defs>
</svg>
