<svg width="130" height="79" viewBox="0 0 130 79" fill="none" xmlns="http://www.w3.org/2000/svg">
<path d="M62.6956 7.1826L62.7459 7.10253L62.6921 7.1826C61.7796 6.55877 60.46 6.26929 59.1677 6.26929C56.2387 6.27193 54.1453 7.71491 52.7682 9.74213C51.3991 11.7755 50.7543 14.3949 50.7543 16.7265C50.7543 18.4114 51.0087 19.9829 52.0395 21.4012C52.5474 22.0937 53.7787 23.7575 57.7588 23.7628C60.5227 23.761 61.8317 23.0475 62.541 22.6348L62.6594 22.4755C62.7981 21.872 63.2644 19.1312 63.4544 18.444L63.3113 18.3349C61.9139 19.4382 60.3902 20.2442 58.6598 20.2442C57.4992 20.2442 56.6168 19.9697 56.0214 19.44C55.4278 18.9147 55.1372 18.1378 55.1372 17.1752C55.1372 16.8206 55.1664 16.4969 55.1938 16.1423L55.2026 16.0587L55.2839 16.056C57.9894 15.9874 59.3682 15.9505 61.6339 15.9505C62.3741 15.9505 63.2088 15.954 64.2166 15.9619L64.3915 15.8405C64.6168 14.7943 64.8606 13.5977 64.8606 12.1257C64.8606 10.8191 64.721 8.49624 62.6956 7.1826ZM60.9034 12.907L60.8884 12.9836L58.2367 13.017L55.6151 13.0513L55.6389 12.9633L55.6513 12.9246C55.7043 12.7416 55.7617 12.5401 55.828 12.3351C56.0082 11.7597 56.2661 11.1332 56.7227 10.5586C56.8031 10.461 56.887 10.3607 56.9763 10.2674C57.7889 9.38226 58.5582 9.245 59.0564 9.245C59.7586 9.245 60.2727 9.5248 60.6031 9.94098C60.6587 10.014 60.7055 10.0853 60.7515 10.1671C60.9149 10.4443 61.0147 10.7593 61.0509 11.0892C61.0686 11.2071 61.0748 11.3312 61.0748 11.4499C61.0756 11.9444 60.9873 12.4301 60.9034 12.907ZM50.6077 9.93306L50.4275 10.1108L47.8165 10.0439L46.6072 15.7155C46.4403 16.4265 46.0711 18.2012 46.0711 18.7731C46.0675 19.3071 46.2698 19.6714 46.5525 19.8879C46.8316 20.1069 47.1814 20.1791 47.494 20.18C48.2201 20.18 48.4736 19.9785 48.9577 19.7946L49.0434 19.8738L48.4012 23.1407L48.1804 23.3545C47.2865 23.5428 46.6213 23.6977 45.6806 23.6977C43.2516 23.6836 41.4982 22.8715 41.4885 20.0515C41.4885 18.7317 42.0238 16.3288 42.4221 14.5427L43.3858 10.0404L41.3357 10.1099L41.212 9.93218L41.8118 6.75938L41.9982 6.65732H44.081L44.9139 2.47883L45.0765 2.29582C47.1619 1.76438 47.7635 1.50834 49.6634 0.885396L49.7641 0.998018L49.1343 3.68953L48.4816 6.72067L51.1562 6.63884L51.226 6.77786L50.6077 9.93306ZM82.8074 4.58083L82.6634 4.74009L75.7728 4.72337L74.6519 10.4504L80.6822 10.2692L80.7714 10.4117C80.275 12.0579 80.1602 12.5234 79.8263 13.9593L79.6735 14.1045L73.9391 14.0922L73.1856 18.0657L72.2317 23.2261L72.1045 23.3448L67.166 23.4716L67.1059 23.3448L67.9618 18.9517L69.2718 12.7495C70.2593 7.93048 70.5419 6.3916 71.4756 1.14144L71.624 0.997139H78.8396L83.4222 0.877477L83.5105 0.997139L82.8074 4.58083ZM92.5414 7.36825C91.583 6.69515 90.0531 6.34936 87.9544 6.34936C86.9183 6.34936 85.8733 6.44879 84.824 6.64676C83.8859 6.82449 83.3038 6.97495 82.8083 7.11661L82.6723 7.25387L81.9912 10.7285L82.2112 10.8604C82.6484 10.6598 83.2897 10.4135 84.1359 10.1152C85.0015 9.81164 85.7983 9.65942 86.5173 9.65942C87.5693 9.65942 88.3713 9.80284 88.9163 10.0994C89.4781 10.4003 89.8809 11.061 89.8782 11.7878C89.8782 11.9673 89.8632 12.1248 89.8385 12.2673C89.8111 12.4011 89.7943 12.4996 89.7872 12.5559L89.7757 12.6298C89.7757 12.6298 89.4357 12.6536 89.0744 12.6844C88.8359 12.7073 88.5321 12.7416 88.1805 12.7821C87.6055 12.8437 86.9439 12.9246 86.3662 13.0214C84.9812 13.251 81.0841 13.8555 79.9146 16.4555C78.6886 18.5857 78.8979 21.4118 80.1019 22.787C80.5267 23.2736 81.1742 23.7311 82.0495 23.9071L82.0478 23.9097C82.0858 23.9229 82.22 23.9396 82.25 23.9467C85.6198 24.4658 88.0374 21.5411 88.0374 21.5411L87.6762 23.344L87.8245 23.4707L91.6104 23.344L91.7676 23.2076L93.9962 12.0579C94.0421 11.823 94.0801 11.545 94.1083 11.2291C94.1331 10.9088 94.149 10.6493 94.149 10.4583C94.1463 9.03119 93.498 8.04047 92.5414 7.36825ZM88.6434 18.5161C88.6434 18.5161 87.738 19.9327 86.4342 20.4404C85.1261 20.9446 84.1818 20.5469 83.8126 20.0427C83.5141 19.6485 82.894 18.4044 84.0714 17.0045C85.2656 15.5906 89.2122 15.5 89.2122 15.5L88.6434 18.5161ZM107.024 6.12236L106.096 10.9176L105.902 11.1138C105.637 11.0663 105.3 11.0276 104.9 11.0276C103.651 11.0276 101.873 11.4271 100.483 13.2625L100.468 13.2774L98.5531 23.2278L98.4179 23.3466L94.2594 23.4724L94.1516 23.3633L97.4225 6.65907L97.6 6.48398L101.716 6.08716L101.879 6.26226L101.404 8.68189L101.607 8.49888C102.467 7.72195 103.23 7.18523 104.083 6.70131C104.927 6.21738 105.774 5.97718 106.626 5.97718C106.708 5.97718 106.792 5.97718 106.88 5.9807L107.024 6.12236ZM129.287 10.3255C129.287 11.3347 129.059 12.3826 128.834 13.4024L126.903 23.2269L126.754 23.3457L122.401 23.4988L122.293 23.3457C122.293 23.3457 124.524 12.4935 124.524 11.9541C124.524 11.4623 124.263 10.1442 122.878 10.1442C121.787 10.1442 120.659 11.2414 120.659 11.2414L118.309 23.2278L118.164 23.3466L116.291 23.4117L114.613 23.468L113.785 23.4953L113.734 23.4276L113.68 23.3457C113.68 23.3457 114.017 21.6942 114.434 19.6485H114.422C115.073 16.4493 115.904 12.2832 115.904 11.9541C115.904 11.4623 115.644 10.1442 114.257 10.1442C113.17 10.1442 112.042 11.2414 112.042 11.2414L109.691 23.2278L109.542 23.3466L108.87 23.3695L105.165 23.4935L105.071 23.3466L108.334 6.65907L108.498 6.49454L112.84 6.08716L113.015 6.26226L112.555 8.6115C112.555 8.6115 114.65 6.32385 117.321 6.27105C119.814 6.22442 120.335 8.6115 120.335 8.6115C120.335 8.6115 122.816 6.2165 125.461 6.27105C126.799 6.28161 129.28 6.86936 129.287 10.3255ZM38.3952 7.36825C37.4386 6.69515 35.9105 6.34936 33.8126 6.34936C32.773 6.34936 31.7298 6.44879 30.684 6.64676C29.7442 6.82449 29.1621 6.97495 28.6648 7.11661L28.5296 7.25387L27.8486 10.7285L28.0686 10.8604C28.5058 10.6598 29.1479 10.4135 29.9924 10.1152C30.8589 9.81164 31.6547 9.65942 32.3737 9.65942C33.4266 9.65942 34.2234 9.80284 34.7746 10.0994C35.3337 10.4003 35.7338 11.061 35.7338 11.7878C35.7338 11.9673 35.7215 12.1248 35.6967 12.2673C35.6676 12.4011 35.6517 12.4996 35.6446 12.5559L35.634 12.6298C35.634 12.6298 35.2948 12.6536 34.9336 12.6844C34.6959 12.7073 34.3886 12.7416 34.0397 12.7821C33.4637 12.8437 32.8013 12.9246 32.2262 13.0214C30.8386 13.251 26.9432 13.8555 25.7729 16.4555C24.5468 18.5857 24.7571 21.4118 25.961 22.787C26.3823 23.2736 27.0316 23.7311 27.9078 23.9071L27.906 23.9097C27.9431 23.9229 28.0783 23.9396 28.1065 23.9467C31.4781 24.4658 33.8957 21.5411 33.8957 21.5411L33.5335 23.344L33.681 23.4707L37.4695 23.344L37.6258 23.2076L39.8518 12.0579C39.9003 11.823 39.9383 11.545 39.9692 11.2291C39.9913 10.9088 40.0081 10.6493 40.0081 10.4583C40.0046 9.03119 39.3589 8.04047 38.3952 7.36825ZM34.4999 18.5161C34.4999 18.5161 33.5971 19.9327 32.2916 20.4404C30.9843 20.9446 30.0418 20.5469 29.6682 20.0427C29.3723 19.6485 28.7531 18.4044 29.9332 17.0045C31.123 15.5906 35.0731 15.5 35.0731 15.5L34.4999 18.5161ZM25.3745 9.93306L25.1925 10.1108L22.5842 10.0439L21.3758 15.7155C21.2062 16.4265 20.8352 18.2012 20.8352 18.7731C20.8343 19.3071 21.0349 19.6714 21.3166 19.8879C21.5993 20.1069 21.9473 20.1791 22.2591 20.18C22.9861 20.18 23.2405 19.9785 23.7227 19.7946L23.8093 19.8738L23.168 23.1407L22.9472 23.3545C22.0568 23.5428 21.3882 23.6977 20.4457 23.6977C18.0219 23.6836 16.265 22.8715 16.2553 20.0515C16.2553 18.7317 16.7924 16.3288 17.189 14.5427L18.1518 10.0404L16.1008 10.1099L15.9771 9.93218L16.5786 6.75938L16.7641 6.65732H18.846L19.6799 2.47883L19.8433 2.29582C21.9252 1.76438 22.5285 1.50834 24.432 0.885396L24.5292 0.998018L23.8994 3.68953L23.2519 6.72242L25.9213 6.6406L25.9946 6.77962L25.3745 9.93306ZM15.5681 2.22719L14.7749 6.29569L14.6 6.35112C14.2847 5.90943 14.0939 5.7361 13.6549 5.39823C12.6797 4.65034 11.5226 4.22713 10.3417 4.22713C9.41596 4.22713 8.6466 4.51484 8.11309 4.99437C7.57516 5.47214 7.26954 6.15227 7.26954 6.9116C7.27219 8.34754 8.25883 9.04791 10.0122 10.0941L10.6941 10.4795C12.163 11.4385 14.4446 12.9096 14.4446 16.2487C14.4393 20.0436 11.9987 23.8508 6.14333 23.8596C4.70798 23.8596 3.30265 23.6035 1.95032 23.1011C1.03788 22.7527 0.597991 22.4509 0.0459294 22.0435L0 21.7822L0.777304 17.8131L0.951313 17.7551C1.30375 18.2091 1.7454 18.5804 2.4061 19.0159C3.81673 19.953 5.16994 20.0533 5.74674 20.0533C7.81365 20.0515 9.43892 18.876 9.43892 17.0503C9.43716 15.4155 8.13959 14.5963 6.78461 13.8009L5.84743 13.2255C4.37232 12.2647 2.32749 10.9581 2.3213 7.68236C2.3213 6.42239 2.68523 4.61427 3.80525 3.13345C5.28212 1.18631 7.60431 0.486816 9.94328 0.486816C12.9544 0.486816 14.6769 1.54881 15.4842 2.06354L15.5681 2.22719Z" fill="#F18D2F"/>
<path d="M55.3967 49.9244C57.6945 51.3345 60.9229 52.231 64.5568 52.231C68.1856 52.231 71.4449 51.3345 73.7768 49.9244C76.1173 48.516 77.4963 46.6142 77.5014 44.607C77.4963 42.5947 76.1259 40.7117 73.7956 39.3152C71.4722 37.9204 68.2216 37.0426 64.5825 37.0358C60.9503 37.0426 57.7167 37.9204 55.4087 39.3152C53.099 40.7134 51.7423 42.5896 51.7372 44.6019C51.7423 46.6193 53.0956 48.516 55.3967 49.9244ZM55.9767 60.8041C53.6533 59.4075 50.4009 58.5281 46.7687 58.5281C43.1331 58.5281 39.8995 59.4075 37.5932 60.7973C35.2818 62.1955 33.9251 64.0649 33.92 66.0772C33.9251 68.0963 35.275 69.9929 37.5813 71.4082C39.8773 72.8081 43.1057 73.7063 46.7414 73.7131C50.377 73.7046 53.6362 72.8081 55.9665 71.4014C58.3018 69.9929 59.6808 68.0963 59.6876 66.084C59.6791 64.0785 58.307 62.2023 55.9767 60.8041ZM91.5307 60.8041C89.2039 59.4075 85.9498 58.5281 82.3158 58.5281C78.6836 58.5281 75.4449 59.4075 73.1438 60.7973C70.8324 62.1938 69.4791 64.0649 69.4756 66.0823C69.4791 68.0946 70.8255 69.9912 73.1335 71.4065C75.4312 72.8064 78.658 73.7046 82.2902 73.7114C85.9224 73.7029 89.1851 72.8064 91.5187 71.3997C93.8541 69.9912 95.2331 68.0946 95.2365 66.0823C95.2331 64.0785 93.8609 62.2023 91.5307 60.8041ZM82.2765 53.2567C80.6341 53.2567 79.0481 53.4115 77.5408 53.6921C80.8342 51.355 82.8616 48.1383 82.8616 44.5883C82.8616 37.4458 74.7041 31.7627 64.5757 31.7627C54.4489 31.7644 46.3752 37.4475 46.3752 44.59C46.3752 48.1451 48.365 51.3618 51.6259 53.699C50.0896 53.4115 48.4779 53.2567 46.8149 53.2567C36.6882 53.2567 28.6162 58.9415 28.6162 66.0772C28.6162 73.2079 36.6454 78.9998 46.7756 78.9998C55.3967 78.9998 62.6235 74.8085 64.5911 69.1612C66.509 74.8085 73.6109 78.9998 82.2337 78.9998C92.3622 78.9998 100.566 73.2096 100.566 66.0772C100.566 58.9415 92.3998 53.2567 82.2765 53.2567ZM49.6772 44.5832C49.6892 41.3666 52.1461 39.1944 53.5866 38.1823C56.4678 36.1462 60.372 35.0491 64.5774 35.0491C68.7964 35.0491 72.7143 36.1513 75.6177 38.1823C77.0703 39.2012 79.5562 41.3768 79.5682 44.5832C79.5203 49.9448 72.5963 54.2127 64.5329 54.2246C60.3446 54.2246 56.4575 53.1104 53.5883 51.059C51.0887 49.278 49.6772 46.9834 49.6772 44.5832ZM46.7756 75.7117C42.5822 75.7117 38.6985 74.5959 35.8208 72.5411C33.3331 70.7669 31.9182 68.4722 31.9182 66.0772C31.9319 62.8606 34.387 60.6833 35.8225 59.6695C38.707 57.647 42.6096 56.543 46.8166 56.5362C51.0374 56.543 54.9553 57.6453 57.8587 59.678C59.313 60.6952 61.8023 62.8674 61.816 66.0772C61.7664 71.432 54.8373 75.6998 46.7756 75.7117ZM64.5962 63.0018C63.8023 60.7275 62.153 58.6965 59.9032 57.0891C61.3797 57.3629 62.9281 57.5092 64.5243 57.5092C66.1668 57.5092 67.7528 57.3561 69.2652 57.0738C67.0222 58.6829 65.3746 60.7156 64.5962 63.0018ZM82.232 75.7117C78.0438 75.7117 74.1566 74.5959 71.2823 72.5411C68.7896 70.7669 67.3712 68.4722 67.3712 66.0772C67.3815 62.8606 69.8452 60.6884 71.2858 59.6695C74.1635 57.647 78.0694 56.543 82.2748 56.5362C86.4956 56.543 90.4118 57.6453 93.3237 59.678C94.7762 60.6952 97.2553 62.8725 97.2622 66.0772C97.2228 71.432 90.2954 75.6998 82.232 75.7117Z" fill="#F18D2F"/>
<path d="M107.107 74.707C107.093 76.4136 105.848 77.7022 104.22 77.6879C102.601 77.6746 101.371 76.3667 101.384 74.6601C101.398 72.9189 102.625 71.6568 104.286 71.67C105.897 71.6833 107.121 73.0004 107.107 74.707ZM101.759 74.653C101.747 76.1138 102.85 77.3107 104.222 77.3219C105.592 77.3341 106.719 76.1546 106.731 74.6866C106.737 73.9873 106.476 73.2747 106.036 72.8026C105.607 72.3378 104.924 72.0421 104.303 72.037C102.853 72.0248 101.773 73.1431 101.759 74.653ZM104.122 72.9749C104.484 72.979 104.653 72.9963 104.859 73.0667C105.218 73.189 105.446 73.5305 105.443 73.9159C105.44 74.3257 105.182 74.6489 104.767 74.7733L105.446 76.4003L104.966 76.3972L104.338 74.8548L104.305 74.8467L104.002 74.8436L103.678 74.8416L103.627 74.8497L103.613 76.386L103.177 76.382L103.206 72.9678L104.122 72.9749ZM104.083 74.4939C104.505 74.498 104.667 74.4725 104.797 74.3726C104.931 74.2788 105.014 74.1086 105.015 73.922C105.018 73.6753 104.907 73.4949 104.692 73.4174C104.573 73.3623 104.385 73.346 104.008 73.3419L103.641 73.3399L103.629 74.4909L104.083 74.4939Z" fill="#F18D2F"/>
</svg>
