<svg width="133" height="82" viewBox="0 0 133 82" fill="none" xmlns="http://www.w3.org/2000/svg">
<g clip-path="url(#clip0)">
<path d="M26.0791 71.9966C26.0136 71.9966 25.948 71.9966 25.8824 71.9966C12.8014 72.104 4.77059 75.6779 3.79771 76.7445C3.50621 77.063 3.47706 77.3889 3.5718 77.6889C6.46492 79.5555 13.5593 81.8962 23.7289 81.9221C35.1047 81.985 46.761 79.1629 55.6991 76.9667C55.6954 76.9667 55.6918 76.9667 55.6918 76.963C47.027 74.6335 37.218 71.9966 26.0791 71.9966Z" fill="#F18D2F"/>
<path d="M64.0254 50.2568C61.2926 49.9605 59.6894 55.6269 59.5801 58.0342C59.5801 59.5527 60.2724 60.2934 61.5113 60.4415C64.1348 60.7378 65.738 55.9232 65.8473 52.8493C65.9566 50.9975 65.2643 50.4049 64.0254 50.2568Z" fill="#F18D2F"/>
<path d="M93.9767 54.9602C93.0658 55.0342 92.2642 55.1824 91.2439 56.5527C90.1144 58.2193 89.75 60.9229 89.8593 63.0339C89.9686 64.4783 90.5516 65.0338 91.4625 64.9968C92.7014 64.8486 93.8674 63.4783 94.1953 62.2561C94.1589 62.2191 95.3249 55.2565 95.1063 55.1453C94.7783 54.9602 94.3046 54.9231 93.9767 54.9602Z" fill="#F18D2F"/>
<path d="M110.416 36.8354C110.712 36.1836 110.988 35.5169 111.229 34.8355C117.642 33.7466 121.847 31.9393 122.55 30.9986C122.495 31.0727 123.199 30.2912 122.262 29.6172C120.349 28.5246 117.099 27.3432 112.727 26.5618C112.73 26.3877 112.741 26.2136 112.741 26.0359C112.741 11.681 101.201 0 87.0163 0C72.8932 0 61.4009 11.681 61.4009 26.0359C61.4009 27.4839 61.5211 28.8987 61.7434 30.2838C53.7199 28.1543 43.6012 25.6433 32.834 25.7025C19.7165 25.7766 10.5708 29.5542 9.44121 31.406C4.99585 38.3316 2.26305 45.4054 0.87843 52.9976C-0.724813 61.3306 -0.0325033 69.145 2.1173 76.3669C1.64361 74.2929 12.0647 70.2561 25.8745 70.145C38.9919 70.1079 50.4332 73.7004 59.7976 76.1447C68.3604 78.3668 80.4576 82.1074 93.5022 81.9963C106.62 81.9593 115.765 78.1446 116.895 76.3669C121.34 69.4413 124.073 62.3676 125.458 54.7753C127.061 46.4053 126.369 38.6279 124.219 31.406C124.572 32.8837 118.954 35.5391 110.416 36.8354ZM23.0323 45.3313L22.1214 48.7385C20.1902 48.7756 16.9837 49.7015 16.8744 50.1829C16.6558 50.9236 16.4007 52.2569 16.1821 54.1827C15.8542 56.9234 15.4898 59.1084 16.2914 59.701C15.2712 60.1825 12.174 60.9232 11.591 60.2195C11.008 59.5529 12.7206 43.6277 15.7084 38.8871C16.1821 38.0353 23.6153 36.4058 27.2591 36.9983L26.0202 40.85C25.8016 40.6648 25.4372 40.5908 25.1093 40.5908C22.923 40.4426 19.0607 41.3315 18.6963 41.8129C18.2226 42.961 17.676 45.4794 17.5667 46.3312C18.8056 45.8498 21.4655 45.3683 23.0323 45.3313ZM30.502 48.146C29.4818 50.6273 27.9878 58.0715 29.3724 58.5529C29.3724 58.5529 25.255 59.2195 24.9271 58.2937C24.3441 57.1085 26.0566 49.8866 26.5303 48.146C26.8583 46.3312 26.5303 44.5165 25.9473 43.8869C25.8745 43.8869 29.1903 41.8129 29.8826 42.0351C30.6842 42.2574 30.6842 43.2943 30.4656 44.6276C32.0688 42.5166 35.2753 42.1462 36.0769 42.6277L34.9474 46.5164C33.3441 45.2943 31.1943 46.4424 30.502 48.146ZM40.5951 59.664C40.5951 59.664 36.6963 59.8121 36.1498 59.0344C35.0202 57.7752 39.3563 45.7757 38.4453 44.3313C38.4453 44.3313 42.5628 42.5536 42.8907 43.1092C44.1296 44.7387 38.7733 58.1826 40.5951 59.664ZM42.1984 39.776C40.8138 39.8501 39.7935 38.8131 39.6842 37.4428C39.5749 36.0724 40.5951 34.8873 41.9798 34.8503C43.2551 34.7762 44.3846 35.8132 44.4939 37.1835C44.4939 38.5538 43.4737 39.7389 42.1984 39.776ZM52.5102 59.4788C51.7085 60.1084 50.6883 60.8491 48.8664 61.0713C46.3522 61.4046 45.6599 59.9603 45.6599 58.3677C45.6599 57.0715 47.9555 48.3312 48.1741 47.4423C47.4818 47.3312 46.2429 47.146 45.4413 47.109C45.4413 47.109 46.8259 44.4424 47.0446 44.0351C47.3725 44.0721 48.1741 44.1832 48.7571 44.2573C48.9757 43.3314 49.3037 41.6278 49.085 41.1093C48.9757 40.9611 52.5102 39.6278 52.9838 39.813C53.3118 39.8871 53.3118 40.5537 53.3118 41.2944C53.2025 41.9981 52.9474 43.7758 52.6195 44.9609L55.826 45.5905L54.9879 48.5904L52.1458 48.0349C51.3442 51.1458 50.3239 55.7012 50.2146 56.4049C49.7774 58.9233 51.4899 59.2196 52.5102 59.4788ZM69.9636 52.9606C69.8543 58.59 66.6478 63.9971 60.4899 63.5527C57.0648 63.2934 55.243 61.1084 55.4616 57.4789C55.5709 51.4421 59.4697 46.7016 64.7167 47.109C68.2511 47.3312 70.1823 49.4793 69.9636 52.9606ZM82.5345 67.4414C81.8422 67.5895 77.0689 66.9599 74.5548 66.2933C73.7531 66.0341 73.3159 65.8118 73.3159 65.5526C73.4252 62.5157 75.7207 54.2198 76.741 48.6645C77.324 45.7387 77.0689 45.035 76.2673 44.2573C77.6519 43.7017 81.077 43.961 81.2957 44.5535C81.6236 45.4794 81.405 46.9979 80.7127 49.9977C80.0204 53.3309 78.3078 61.0713 78.0892 62.9601C78.0892 63.1823 78.4171 63.2934 79.0001 63.4045C80.494 63.7008 81.7329 63.849 83.2268 63.7379C83.5548 63.7008 83.9192 63.5897 84.2471 63.4416C84.2471 63.4416 83.4455 67.2933 82.5345 67.4414ZM97.3645 68.6265C96.7815 68.7747 96.1257 68.8487 95.5427 68.5895C94.9597 68.3303 94.741 67.071 94.6317 66.1081C93.8301 67.7007 92.2269 68.4784 90.988 68.5154C88.1459 68.7006 86.1783 67.1081 85.9596 63.849C85.741 60.1825 86.652 57.0345 88.2552 54.9235C89.7491 53.0346 91.4617 52.0717 93.9759 51.8125C94.6682 51.7384 95.3605 51.7384 96.0164 51.7384C97.5103 51.7754 98.8585 51.9977 99.4415 52.368C99.4415 52.4421 98.3119 62.9972 98.6398 64.923C98.8585 65.8859 99.0771 66.4414 100.462 66.9229C99.5508 67.8118 98.4212 68.4043 97.3645 68.6265ZM66.5385 31.5541C65.8754 31.3801 65.1831 31.1986 64.4798 31.0097C64.1373 29.4061 63.9515 27.7432 63.9515 26.0359C63.9515 13.1105 74.2997 2.59248 87.0163 2.59248C99.7949 2.59248 110.19 13.1105 110.19 26.0359C110.19 30.0838 109.17 33.8948 107.381 37.2242C105.206 37.4502 102.888 37.5872 100.462 37.5909C87.3078 37.6279 75.9029 34.0355 66.5385 31.5541ZM114.126 60.2565C112.559 65.0711 109.79 69.7376 106.948 73.0337C105.709 74.5152 104.433 75.8484 102.721 74.4781C101.591 73.5522 101.008 71.9597 101.008 71.4412C101.701 71.7745 102.721 71.6264 103.522 70.9227C104.324 70.182 105.927 67.9969 105.927 67.3673C105.818 65.6637 104.907 60.8861 103.887 57.9233C102.721 54.479 102.393 53.3309 101.591 52.8865C101.591 52.8865 105.126 50.6273 105.818 51.3681C107.895 53.7013 109.024 63.5897 109.024 63.5897C109.024 63.5897 110.263 61.6268 111.065 57.2937C111.502 54.2938 111.393 52.0717 111.174 50.9607C111.174 50.9607 115.073 49.8496 115.146 50.0348C115.365 50.7014 115.365 51.8125 115.365 52.9606C115.365 55.1086 115.037 57.8492 114.126 60.2565Z" fill="#F18D2F"/>
<path d="M130.269 30.7764C128.665 30.7764 127.427 32.1467 127.427 33.7392C127.39 35.4058 128.665 36.702 130.269 36.702C131.763 36.702 133.001 35.4058 133.001 33.7392C133.001 32.1096 131.763 30.7764 130.269 30.7764ZM130.269 36.2206C128.884 36.2206 127.864 35.1836 127.864 33.7392C127.864 32.3689 128.884 31.2949 130.269 31.2949C131.508 31.2949 132.564 32.4059 132.564 33.7392C132.528 35.1095 131.508 36.2206 130.269 36.2206Z" fill="#F18D2F"/>
<path d="M131.617 32.9245C131.617 32.6652 131.508 32.406 131.143 32.2208C130.925 32.0356 130.67 32.0356 130.451 32.0356H129.066V35.3688H129.394V33.8874H130.087L130.998 35.3688H131.471L130.597 33.8874C131.18 33.8874 131.617 33.6282 131.617 32.9245ZM130.05 33.48H129.467V32.406H130.378C130.706 32.406 131.18 32.443 131.18 32.9245C131.18 33.5911 130.487 33.48 130.05 33.48Z" fill="#F18D2F"/>
</g>
<defs>
<clipPath id="clip0">
<rect width="133" height="82" fill="white"/>
</clipPath>
</defs>
</svg>
