<svg width="50" height="50" viewBox="0 0 50 50" fill="none" xmlns="http://www.w3.org/2000/svg">
<path fill-rule="evenodd" clip-rule="evenodd" d="M38 10C38 6.68628 40.6863 4 44 4H47C48.6569 4 50 5.34314 50 7C50 8.65686 48.6569 10 47 10H44L41.4086 32.4585C41.1758 34.4769 39.4668 36 37.435 36H12H9.82858H7C5.34314 36 4 34.6569 4 33C4 31.3431 5.34314 30 7 30H8.48352H34.8235C36.0256 30 37 29.1046 37 28C37 26.8954 36.0256 26 34.8235 26H7.58682H5C3.34314 26 2 24.6569 2 23C2 21.3431 3.34314 20 5 20H6.24176H36.7714C38.0022 20 39 19.1046 39 18C39 16.8954 38.0022 16 36.7714 16H5.34506H3C1.34314 16 0 14.6569 0 13C0 11.3431 1.34314 10 3 10H4H14H38ZM36 39C38.2091 39 40 40.7909 40 43C40 45.2091 38.2091 47 36 47C33.7909 47 32 45.2091 32 43C32 40.7909 33.7909 39 36 39ZM16 43C16 40.7909 14.2091 39 12 39C9.79086 39 8 40.7909 8 43C8 45.2091 9.79086 47 12 47C14.2091 47 16 45.2091 16 43Z" fill="#F08B2D"/>
</svg>
