<svg width="50" height="50" viewBox="0 0 50 50" fill="none" xmlns="http://www.w3.org/2000/svg">
<path d="M38.4574 7C39.7809 7 40.9807 7.42274 41.6734 8.11921C43.4422 9.89769 43.4422 12.8079 41.6734 14.5988L36.9112 19.3872C36.9112 23.4541 36.973 26.9362 37.0348 29.7345L37.0351 29.7468C37.1957 37.6731 37.269 41.2895 35.6371 42.9676C34.9444 43.6765 33.9796 44 32.5819 44L28.3267 28.0809L20.8309 36.1649V39.6471C20.8309 41.6992 19.2476 44 17.1201 44C14.2257 44 13.3598 41.1519 12.6052 38.6396C12.5063 38.3162 12.4073 37.9804 12.3084 37.657C11.9744 37.5451 11.6281 37.4334 11.2818 37.334L11.2778 37.3327C8.68143 36.5371 6 35.7155 6 32.8067C6 30.7173 7.63276 29.0756 9.71083 29.0756H13.7926L21.8328 21.5388L6 17.2605C6 13.1563 8.83249 12.7084 14.8564 12.7084C16.3778 12.7084 18.1715 12.7458 20.2496 12.7831C23.0204 12.8328 26.4589 12.9076 30.479 12.9076L35.2413 8.11921C35.934 7.4103 37.1338 7 38.4574 7Z" fill="#F08B2D"/>
</svg>
