<svg width="50" height="50" viewBox="0 0 50 50" fill="none" xmlns="http://www.w3.org/2000/svg">
<path d="M38.5646 5.17157C40.1267 3.60948 42.6597 3.60948 44.2218 5.17157C45.7839 6.73367 45.7839 9.26672 44.2218 10.8288L37.2785 17.7712C37.4276 18.2091 37.5232 18.6761 37.5519 19.1667L38.8244 40.9059C38.8895 42.0231 38.1606 43.0319 37.0793 43.321C35.8725 43.6436 34.6219 42.9699 34.2267 41.7849L28.9845 26.0642L19.048 36.0007L21.9338 42.7331C22.2411 43.4503 22.0812 44.2829 21.5295 44.8347C20.7844 45.5797 19.5764 45.5795 18.8312 44.8347L4.55875 30.5622C3.81377 29.817 3.81373 28.6091 4.55875 27.864C5.11041 27.3123 5.94224 27.1524 6.65934 27.4597L13.3918 30.3444L23.3273 20.4079L7.60856 15.1667C6.42353 14.7715 5.74988 13.5209 6.07243 12.3142C6.36152 11.2328 7.37029 10.5038 8.48746 10.569L30.2267 11.8405C30.7169 11.8692 31.1837 11.965 31.6213 12.114L38.5646 5.17157Z" fill="#F18D2F"/>
</svg>
