<svg width="50" height="50" viewBox="0 0 50 50" fill="none" xmlns="http://www.w3.org/2000/svg">
<path fill-rule="evenodd" clip-rule="evenodd" d="M25 4C15.0589 4 7 12.0589 7 22V39V39.5C7 42.5375 9.46243 45 12.5 45C15.5376 45 18 42.5375 18 39.5V39V36.5C18 35.6716 18.6716 35 19.5 35C20.3284 35 21 35.6716 21 36.5V39V41.5C21 44.5375 23.4624 47 26.5 47C29.5376 47 32 44.5375 32 41.5V39V36.5C32 35.6716 32.6716 35 33.5 35C34.3284 35 35 35.6716 35 36.5V39C35 41.2092 36.7909 43 39 43C41.2091 43 43 41.2092 43 39V22C43 12.0589 34.9411 4 25 4ZM33 18C33 16.3431 34.3431 15 36 15C37.6569 15 39 16.3431 39 18V20C39 21.6569 37.6569 23 36 23C34.3431 23 33 21.6569 33 20V18ZM27 15C25.3431 15 24 16.3431 24 18V20C24 21.6569 25.3431 23 27 23C28.6569 23 30 21.6569 30 20V18C30 16.3431 28.6569 15 27 15Z" fill="#F08B2D"/>
</svg>
