<svg width="50" height="50" viewBox="0 0 50 50" fill="none" xmlns="http://www.w3.org/2000/svg">
<path fill-rule="evenodd" clip-rule="evenodd" d="M45.6596 2.94416C45.6596 5.82015 36.3338 15.0949 24.8298 15.0949C13.3258 15.0949 4 5.82015 4 2.94416C4 1.44544 6.53253 1.98011 10.5861 2.83591C14.3112 3.62235 19.3207 4.67998 24.8298 4.67998C30.3389 4.67998 35.3484 3.62235 39.0735 2.83591C43.127 1.98011 45.6596 1.44544 45.6596 2.94416ZM45.6596 19.039C45.6596 21.915 36.3338 31.1897 24.8298 31.1897C13.3258 31.1897 4 21.915 4 19.039C4 17.5403 6.53253 18.075 10.5861 18.9308C14.3112 19.7172 19.3207 20.7748 24.8298 20.7748C30.3389 20.7748 35.3484 19.7172 39.0735 18.9308C43.127 18.075 45.6596 17.5403 45.6596 19.039ZM24.8298 47.2846C36.3338 47.2846 45.6596 38.0098 45.6596 35.1339C45.6596 33.6351 43.127 34.1698 39.0735 35.0256C35.3484 35.812 30.3389 36.8697 24.8298 36.8697C19.3207 36.8697 14.3112 35.812 10.5861 35.0256C6.53253 34.1698 4 33.6351 4 35.1339C4 38.0098 13.3258 47.2846 24.8298 47.2846Z" fill="#F08B2D"/>
</svg>
