<svg width="50" height="50" viewBox="0 0 50 50" fill="none" xmlns="http://www.w3.org/2000/svg">
<path fill-rule="evenodd" clip-rule="evenodd" d="M42.5676 42H10.6628L10.4481 41.9908C5.19247 41.766 1 37.4331 1 32.1216C1 26.7312 5.31772 22.349 10.683 22.2451L11.9046 22.2215L11.6399 21.0287C11.4865 20.3374 11.4054 19.6179 11.4054 18.8784C11.4054 13.4227 15.8281 9 21.2838 9C26.7395 9 31.1622 13.4227 31.1622 18.8784C31.1622 19.0977 31.155 19.3153 31.141 19.5308L31.051 20.913L32.3912 20.5634C32.9212 20.4252 33.4783 20.3514 34.0541 20.3514C37.6812 20.3514 40.6216 23.2918 40.6216 26.9189C40.6216 27.1978 40.6043 27.4722 40.5708 27.7411L40.4306 28.8649H42.5676C46.1947 28.8649 49.1351 31.8053 49.1351 35.4324C49.1351 39.0596 46.1947 42 42.5676 42Z" fill="#F08B2D"/>
</svg>
