<svg width="50" height="50" viewBox="0 0 50 50" fill="none" xmlns="http://www.w3.org/2000/svg">
<path fill-rule="evenodd" clip-rule="evenodd" d="M42 25C42 27.0259 41.6456 28.9691 40.9954 30.7709L32.9235 26.1106C32.9739 25.7476 33 25.3768 33 25C33 21.6426 30.9318 18.7683 28 17.5815V8.26387C35.958 9.6808 42 16.6348 42 25ZM25 42C30.2104 42 34.8733 39.6559 37.9917 35.9649L29.923 31.3064C28.5655 32.3676 26.8566 33 25 33C23.1434 33 21.4345 32.3676 20.0771 31.3064L12.0083 35.9649C15.1267 39.656 19.7896 42 25 42ZM9.00455 30.7709C8.35439 28.9691 8 27.0259 8 25C8 16.6348 14.042 9.6808 22 8.26387V17.5815C19.0682 18.7683 17 21.6426 17 25C17 25.3768 17.0261 25.7476 17.0765 26.1106L9.00455 30.7709ZM48 25C48 37.7025 37.7025 48 25 48C12.2975 48 2 37.7025 2 25C2 12.2975 12.2975 2 25 2C37.7025 2 48 12.2975 48 25Z" fill="#F08B2D"/>
</svg>
