<svg width="32" height="32" viewBox="0 0 32 32" fill="none" xmlns="http://www.w3.org/2000/svg">
<path d="M3.7495 19.9674C7.92278 22.0379 12.4577 22.5781 16.7043 21.5105C20.9506 20.4429 24.6901 17.8221 27.3879 14.0243L30.0725 16.632C30.736 17.2765 30.8368 18.3137 30.2552 19.033C27.0339 23.0168 22.8104 25.7753 18.0758 26.9657C13.3412 28.1561 8.31519 27.7229 3.59282 25.7363C2.74029 25.3777 2.33778 24.4163 2.61737 23.5347L3.7495 19.9674Z" fill="#813E00"/>
<path d="M18.0758 26.9656C12.8816 28.2715 7.38059 27.6616 2.32574 25.2825L1.83751 25.0467L1.66993 24.9529C0.865621 24.4468 0.559852 23.4033 0.991204 22.5337C1.45145 21.606 2.57662 21.2271 3.50425 21.6874C7.94729 23.8917 12.7236 24.4445 17.1614 23.3288C21.5992 22.2131 25.5461 19.4671 28.4184 15.4236C29.018 14.5793 30.1886 14.3811 31.0328 14.9807C31.8769 15.5804 32.0753 16.751 31.4757 17.5952C28.1222 22.3163 23.4376 25.6176 18.0758 26.9656Z" fill="#F18D2F"/>
<path d="M27.3888 14.0241C24.691 17.8221 20.9507 20.4428 16.7042 21.5105C12.4576 22.5781 7.9227 22.0379 3.74943 19.9674L7.06492 9.51639C7.44406 10.1262 8.04007 10.6037 8.78524 10.8158C9.7194 11.0817 10.6743 10.8706 11.3975 10.3323C11.6286 11.1336 12.2525 11.8025 13.1137 12.0476C14.4415 12.4255 15.8244 11.6552 16.2025 10.3275C16.3624 9.76584 16.3142 9.19498 16.108 8.69384C17.2829 8.80273 18.4051 8.06628 18.7399 6.89026C18.8587 6.47257 18.8635 6.04983 18.7735 5.65432L27.3888 14.0241Z" fill="#F18D2F"/>
<path d="M5 6.00001L4 4.00001C4.66667 4.00001 5.6 4.20001 6 5.00001C6.4 5.80001 5.5 5.66668 5 6.00001Z" fill="#F18D2F"/>
<path d="M8.5 8.5C7.48807 7.99404 8.16667 7.33333 8.5 7C9 7 9.5 6.60557 9.5 7.5C9.5 8 9.5 9 8.5 8.5Z" fill="#F18D2F"/>
<path d="M16.5 4.50002C15.4881 5.00601 15.6667 3.33336 16 3.00002C15.5 2.00001 17 2.10557 17 3C17 3.5 17.5 4 16.5 4.50002Z" fill="#F18D2F"/>
<path d="M17.946 14.9148C17.6304 13.6594 18.3922 12.3859 19.6475 12.0703C20.9029 11.7547 22.1764 12.5165 22.492 13.7718C22.8076 15.0272 22.0458 16.3007 20.7905 16.6163C19.5351 16.9319 18.2616 16.1701 17.946 14.9148Z" fill="#3A1C00"/>
<path d="M8.85394 17.2007C8.53832 15.9453 9.30013 14.6718 10.5555 14.3562C11.8108 14.0406 13.0843 14.8024 13.4 16.0577C13.7156 17.3131 12.9538 18.5866 11.6984 18.9022C10.4431 19.2178 9.16955 18.456 8.85394 17.2007Z" fill="#3A1C00"/>
</svg>
