<svg width="39" height="39" viewBox="0 0 39 39" fill="none" xmlns="http://www.w3.org/2000/svg">
<path d="M8.7495 26.9674C12.9228 29.0379 17.4577 29.5781 21.7043 28.5105C25.9506 27.4429 29.6901 24.8221 32.3879 21.0243L35.0725 23.632C35.736 24.2765 35.8368 25.3137 35.2552 26.033C32.0339 30.0168 27.8104 32.7753 23.0758 33.9657C18.3412 35.1561 13.3152 34.7229 8.59282 32.7363C7.74029 32.3777 7.33778 31.4163 7.61737 30.5347L8.7495 26.9674Z" fill="#813E00"/>
<path d="M23.0758 33.9656C17.8816 35.2715 12.3806 34.6616 7.32574 32.2825L6.83751 32.0467L6.66993 31.9529C5.86562 31.4468 5.55985 30.4033 5.9912 29.5337C6.45145 28.606 7.57662 28.2271 8.50425 28.6874C12.9473 30.8917 17.7236 31.4445 22.1614 30.3288C26.5992 29.2131 30.5461 26.4671 33.4184 22.4236C34.018 21.5793 35.1886 21.3811 36.0328 21.9807C36.8769 22.5804 37.0753 23.751 36.4757 24.5952C33.1222 29.3163 28.4376 32.6176 23.0758 33.9656Z" fill="#F18D2F"/>
<path d="M32.3888 21.0241C29.691 24.8221 25.9507 27.4428 21.7042 28.5105C17.4576 29.5781 12.9227 29.0379 8.74943 26.9674L12.0649 16.5164C12.4441 17.1262 13.0401 17.6037 13.7852 17.8158C14.7194 18.0817 15.6743 17.8706 16.3975 17.3323C16.6286 18.1336 17.2525 18.8025 18.1137 19.0476C19.4415 19.4255 20.8244 18.6552 21.2025 17.3275C21.3624 16.7658 21.3142 16.195 21.108 15.6938C22.2829 15.8027 23.4051 15.0663 23.7399 13.8903C23.8587 13.4726 23.8635 13.0498 23.7735 12.6543L32.3888 21.0241Z" fill="#F18D2F"/>
<path d="M10 13L9 11C9.66667 11 10.6 11.2 11 12C11.4 12.8 10.5 12.6667 10 13Z" fill="#F18D2F"/>
<path d="M13.5 15.5C12.4881 14.994 13.1667 14.3333 13.5 14C14 14 14.5 13.6056 14.5 14.5C14.5 15 14.5 16 13.5 15.5Z" fill="#F18D2F"/>
<path d="M21.5 11.5C20.4881 12.006 20.6667 10.3334 21 10C20.5 9.00001 22 9.10557 22 10C22 10.5 22.5 11 21.5 11.5Z" fill="#F18D2F"/>
<circle cx="25.219" cy="21.3433" r="2.34375" transform="rotate(165.887 25.219 21.3433)" fill="#3A1C00"/>
<circle cx="16.127" cy="23.6292" r="2.34375" transform="rotate(165.887 16.127 23.6292)" fill="#3A1C00"/>
</svg>
