<svg width="46" height="46" viewBox="0 0 46 46" fill="none" xmlns="http://www.w3.org/2000/svg">
<path d="M38.2247 18.2067C39.1249 18.4192 39.7434 19.2579 39.6135 20.1738C38.8941 25.2463 36.6861 29.7819 33.234 33.234C29.7819 36.6861 25.2462 38.8941 20.1737 39.6135C19.2579 39.7434 18.4192 39.125 18.2067 38.2247L12.3693 13.4972C12.2092 12.8189 12.8188 12.2092 13.4971 12.3693L38.2247 18.2067Z" fill="#813E00"/>
<path d="M38.0537 18.1664C37.632 23.5252 35.4807 28.3356 31.9081 31.9082C28.3356 35.4808 23.5251 37.6321 18.1663 38.0537" stroke="#F18D2F" stroke-width="3.75" stroke-linecap="round"/>
<path d="M34.5828 17.347C34.2173 21.9913 32.3529 26.1603 29.2566 29.2566C26.1604 32.3528 21.9914 34.2172 17.3471 34.5827L12.3694 13.4971C12.2093 12.8189 12.819 12.2092 13.4972 12.3693L34.5828 17.347Z" fill="#F18D2F"/>
<circle cx="28.5936" cy="21.3016" r="2.34375" transform="rotate(135 28.5936 21.3016)" fill="#3A1C00"/>
<circle cx="19.9757" cy="19.3129" r="2.34375" transform="rotate(135 19.9757 19.3129)" fill="#3A1C00"/>
<circle cx="21.9645" cy="27.9307" r="2.34375" transform="rotate(135 21.9645 27.9307)" fill="#3A1C00"/>
</svg>
