<svg width="32" height="32" viewBox="0 0 32 32" fill="none" xmlns="http://www.w3.org/2000/svg">
<path fill-rule="evenodd" clip-rule="evenodd" d="M0 2.29228C0 1.02663 1.0587 0 2.36474 0H29.6353C30.9412 0 32 1.02663 32 2.29228V29.7077C32 30.9738 30.9412 32 29.6353 32H2.36474C1.0587 32 0 30.9738 0 29.7077V2.29228ZM9.70009 26.7872V12.3374H4.86677V26.7872H9.70009ZM7.28341 10.3646C8.96888 10.3646 10.018 9.25497 10.018 7.86832C9.98654 6.45045 8.96889 5.37165 7.31538 5.37165C5.66205 5.37165 4.58105 6.45045 4.58105 7.86832C4.58105 9.25497 5.6299 10.3646 7.2519 10.3646H7.28331H7.28341ZM17.2083 26.7872H12.3751C12.3751 26.7872 12.4386 13.6933 12.3751 12.3374H17.2084V14.3832C17.1975 14.4 17.1867 14.4166 17.1761 14.433H17.2084V14.3832C17.8507 13.3986 19.0003 11.9984 21.5642 11.9984C24.7442 11.9984 27.1287 14.0636 27.1287 18.5019V26.7872H22.2958V19.0569C22.2958 17.1144 21.5961 15.7893 19.8472 15.7893C18.512 15.7893 17.7167 16.683 17.3673 17.5458C17.2397 17.8546 17.2083 18.286 17.2083 18.7178V26.7872Z" fill="#F18D2F"/>
</svg>
