<svg width="106" height="78" viewBox="0 0 106 78" fill="none" xmlns="http://www.w3.org/2000/svg">
<g clip-path="url(#clip0)">
<path d="M1.33073 36.9852C1.00958 36.8343 0.498575 37.0385 0.356629 36.5483C0.209359 36.0386 0.47196 35.6302 0.793113 35.2644C1.14975 34.8577 1.31654 34.8346 1.78319 35.323C2.66148 36.2429 3.47057 37.3102 4.7676 37.756C5.0923 37.8678 5.39749 38.0916 5.65831 38.326C6.46208 39.0453 7.44506 39.333 8.45998 39.5692C9.9646 39.919 11.5189 40.1339 13.0182 39.9297C14.1591 39.7734 15.5626 39.8409 16.2777 38.5036C16.4231 38.2337 16.7017 37.9779 16.9821 37.8448C18.7706 36.9923 19.5832 35.362 20.4101 33.7122C20.9015 32.7319 21.5048 31.8066 22.062 30.8583C22.2908 30.4676 22.8675 30.4942 23.0804 30.0627C22.2216 29.4962 22.3529 28.7663 23.43 28.0453C22.6847 26.8785 23.6038 25.9852 24.0031 25.0386C24.1929 24.5893 24.255 24.2803 24.1078 23.8168C23.6393 22.3321 23.6677 20.8546 24.4165 19.4445C24.5478 19.1976 24.5549 18.9384 24.5691 18.6702C24.6259 17.61 24.7536 16.5604 24.9097 15.5055C25.0748 14.3814 25.0109 13.2146 25.128 12.0691C25.1582 11.769 24.9594 11.5505 24.6578 11.5204C24.0048 11.4546 23.3306 11.4369 22.7894 11.8684C22.447 12.1419 22.0779 12.2716 21.6734 12.3639C21.3274 12.4438 20.9725 12.522 20.694 12.7564C20.1829 13.1879 19.5779 13.3939 18.9498 13.5911C18.3891 13.7687 17.8036 13.9658 17.3316 14.2997C16.5527 14.8537 15.6478 15.0189 14.7783 15.264C13.6091 15.5943 12.4806 15.9726 11.4728 16.6652C11.4249 16.6989 11.3699 16.7273 11.3149 16.7451C8.56289 17.6064 5.99721 18.9419 3.27362 19.8796C2.46808 20.1566 1.86835 19.9258 1.24379 19.4179C-0.070984 18.3488 -0.38504 16.793 0.489703 15.3936C0.633423 15.1628 0.770046 14.9585 1.07346 14.9035C2.38823 14.6708 3.60719 14.1469 4.81374 13.6017C5.15263 13.449 5.50572 13.4632 5.84284 13.3673C7.50716 12.8931 9.1147 12.2822 10.6814 11.5399C11.9341 10.9467 13.3305 10.7176 14.592 10.1263C15.9565 9.48693 17.3635 8.98968 18.8593 8.71086C19.6861 8.55635 20.403 8.00582 21.2387 7.78916C22.0549 7.57782 22.8693 7.37182 23.6411 6.98289C24.1432 6.73071 24.7447 6.57798 25.2522 7.1818C25.5574 7.54586 25.9318 7.42865 25.9903 6.92606C26.0719 6.22102 26.551 5.96529 27.1294 5.88005C28.6341 5.65628 29.9684 4.90507 31.4304 4.54456C32.0621 4.38828 32.6707 4.15564 33.3342 4.32612C33.5436 4.3794 33.7565 4.3723 33.9304 4.24088C34.9187 3.48612 36.2104 3.28544 37.165 2.46319C37.4347 2.23054 37.7914 2.13109 38.1462 2.07959C39.4131 1.89667 40.6338 1.58056 41.8599 1.17743C43.1055 0.767189 44.3901 0.374711 45.7119 0.213103C46.2851 0.142066 46.9078 -0.312568 47.3887 0.426213C47.4526 0.523888 47.6371 0.500801 47.7045 0.403126C48.0576 -0.106562 48.5757 0.0355115 49.0672 0.00887274C49.4167 -0.0106623 49.7414 -0.0337492 49.8834 0.344521C50.0449 0.77962 49.8124 1.17032 49.47 1.3195C48.7017 1.65515 47.9529 2.33887 47.0729 1.66935C46.7677 1.85938 46.7553 2.14885 46.6417 2.38327C46.5618 2.55021 46.3951 2.77752 46.2691 2.70471C45.4919 2.25185 45.0714 3.08121 44.4539 3.19309C44.1044 3.25702 43.8241 3.39732 43.4568 3.21085C43.0256 2.99241 42.7293 3.21262 42.5785 3.65483C42.2627 4.58541 41.6434 5.23184 40.7474 5.05247C39.72 4.84824 39.0423 5.35793 38.5259 5.91379C37.7825 6.71295 36.8314 6.93672 35.9248 7.29545C35.0216 7.65064 34.1309 8.0591 33.155 8.2136C32.5748 8.30595 32.1721 8.83695 31.5386 8.87247C31.2459 8.88845 31.2636 9.27205 31.2068 9.53133C30.9567 10.6786 30.5894 11.785 29.9045 12.7511C29.7022 13.0388 29.6206 13.243 29.8743 13.52C30.3037 13.9871 30.1937 14.5234 29.9755 15.0189C29.7058 15.6369 29.633 16.2621 29.6774 16.9245C29.7164 17.4874 29.6862 18.0575 29.523 18.5974C29.2267 19.5759 29.3207 20.5935 29.2178 21.588C29.1593 22.151 29.1522 22.6909 28.8825 23.2041C28.3998 24.1223 28.4549 25.1612 28.336 26.1415C28.1905 27.3331 27.8037 28.4395 27.4435 29.5583C27.2536 30.1479 26.9893 30.7127 26.9449 31.3431C26.936 31.4586 26.9112 31.59 26.8473 31.6823C26.0311 32.8793 25.5361 34.2467 24.837 35.5094C24.1007 36.8378 23.0361 37.9051 22.2181 39.1643C21.6379 40.0593 20.8128 40.7679 19.9683 41.4072C19.1787 42.0057 18.3093 42.4994 17.4718 43.034C17.3227 43.1281 17.1506 43.2791 17.0016 43.2666C15.717 43.1618 14.6932 44.2398 13.4671 44.1244C12.3741 44.0214 11.2528 44.3499 10.1775 43.8829C9.6399 43.6484 9.04728 43.5454 8.44578 43.6893C8.21157 43.7461 7.89042 43.7941 7.82122 43.5259C7.50184 42.2899 6.37514 42.3343 5.48798 41.9968C5.26796 41.9134 5.03198 41.8743 4.80486 41.805C4.5121 41.7145 4.32934 41.496 4.1182 41.2794C3.35701 40.4962 2.53195 39.7752 2.23919 38.651C2.20193 38.5089 1.99965 38.3988 1.85771 38.2941C1.21008 37.8092 1.20831 37.8128 1.33073 36.9852Z" fill="#F08B2D"/>
<path d="M83.7748 49.6671C83.9043 50.1857 83.8812 50.4521 83.7109 50.7771C82.8415 52.4304 81.5516 53.7695 80.4674 55.2612C80.2474 55.5649 80.219 55.5436 79.6211 55.4939C79.7169 56.5363 78.851 57.1206 78.4642 57.9358C77.8272 59.2766 76.5178 60.0349 75.6519 61.1786C75.1711 61.8144 74.676 62.4377 74.3283 63.1623C74.2768 63.2688 74.2378 63.3949 74.1544 63.4677C72.4528 64.9435 71.7182 67.1599 70.1817 68.7316C69.1224 69.8149 68.5795 71.2427 67.4616 72.2763C66.7696 72.9156 66.4787 73.9456 65.6057 74.4695C64.9048 74.8904 64.4506 75.6008 63.7693 76.0466C63.5404 76.1957 63.331 76.3822 63.3168 76.6717C63.2884 77.2417 62.8821 77.4691 62.4616 77.7035C62.0056 77.9574 61.5389 78.1706 61.0599 77.7976C60.5435 77.3963 60.6269 76.8013 60.6358 76.2437C60.6376 76.0945 60.7263 75.9258 60.8682 75.8885C61.5691 75.7038 61.5265 75.1835 61.4999 74.6294C61.468 74.0185 61.8033 73.5336 62.2487 73.1856C62.8129 72.7434 63.0382 72.1733 63.0932 71.5055C63.15 70.8325 63.457 70.3086 63.8349 69.7527C64.573 68.6658 65.6376 67.8027 66.0883 66.517C66.1078 66.4619 66.1344 66.4033 66.1735 66.3625C67.4723 64.9986 68.0986 63.1978 69.2005 61.706C69.4666 61.3473 69.731 60.9992 70.1213 60.7612C70.2686 60.6707 70.4159 60.5499 70.5099 60.4061C71.7626 58.5236 73.0224 56.6465 74.2431 54.7427C74.5767 54.2223 75.0735 53.8956 75.5117 53.5226C76.5373 52.6471 77.0323 51.4359 77.7509 50.3633C78.262 49.6014 78.6452 48.6761 79.6672 48.3955C79.7932 48.36 79.8908 48.257 79.8571 48.1363C79.6566 47.4188 80.2066 47.0494 80.5704 46.6125C81.3777 45.6375 82.0661 44.5738 82.9763 43.6698C83.6985 42.9524 84.08 41.9436 84.7099 41.1161C86.4629 38.8216 87.9072 36.3051 89.7401 34.0639C90.338 33.334 90.2883 33.0694 89.8962 32.2436C88.9789 30.3061 87.5417 28.6474 86.8941 26.5678C86.8249 26.3422 86.7006 26.1273 86.6687 25.8982C86.4079 23.9323 85.8791 22.0179 85.4693 20.0839C85.157 18.6099 85.7177 17.7734 87.1691 16.9956C87.4015 16.8713 87.6641 16.8002 87.9125 16.7079C89.0658 16.2799 89.7312 16.5125 90.0878 17.6988C90.4321 18.8408 90.8739 19.9951 90.613 21.2489C90.5563 21.5224 90.6272 21.842 90.7035 22.1226C90.8916 22.8099 91.1116 23.4865 90.8437 24.2022C90.8242 24.2537 90.8224 24.3266 90.8419 24.3781C91.2074 25.3033 91.7113 26.1629 92.0077 27.1272C92.1177 27.4824 92.5169 27.8322 92.7937 28.175C93.1858 28.6562 93.5389 28.6793 93.9985 28.2673C94.3072 27.9885 94.5662 27.6617 94.7454 27.2835C95.441 25.8094 96.2944 24.4402 97.3023 23.1545C97.6553 22.7034 97.902 22.1369 98.1362 21.6059C98.8264 20.0395 100.04 18.8088 100.775 17.262C101.355 16.0419 103.431 15.383 104.724 15.7791C105.398 15.9851 106.151 17.0737 105.97 17.8178C105.801 18.5104 105.645 19.2315 105.157 19.8335C104.754 20.3307 104.486 20.9381 104.162 21.4975C103.633 22.4121 103.111 23.3161 102.395 24.1223C101.841 24.7439 101.429 25.5431 101.133 26.3298C100.686 27.5232 99.8697 28.4591 99.1813 29.482C98.161 30.9969 96.9935 32.4052 96.0354 33.9733C95.2139 35.3195 94.2823 36.6212 93.2408 37.8022C92.2596 38.9175 91.4292 40.1411 90.4746 41.2759C89.7915 42.0893 89.332 43.098 88.805 44.0303C87.7564 45.8844 86.2358 47.4046 85.2315 49.2817C84.9547 49.8092 84.5023 50.0454 83.7748 49.6671Z" fill="#F08B2D"/>
<path d="M56.9736 29.7714C56.9736 29.0628 56.986 28.3525 56.9665 27.6457C56.9612 27.4077 56.8707 27.1235 56.5708 27.1537C56.2106 27.191 56.326 27.4947 56.3756 27.7131C56.5034 28.2779 56.3419 28.745 55.9942 29.1978C55.1318 30.3202 54.7202 31.7232 53.7674 32.7958C52.9015 33.7708 52.4952 35.0992 51.3224 35.8557C50.6925 36.2606 50.1389 36.4986 49.4522 36.0706C49.3032 35.9765 49.1382 35.8539 48.9749 35.8451C47.8323 35.7847 47.2698 35.0086 46.6293 34.1846C46.0508 33.4405 46.0721 32.6555 46.042 31.8528C46.0154 31.1424 46.0615 30.4161 45.8397 29.743C45.4973 28.697 45.9355 27.6954 45.9213 26.6707C45.9036 25.4187 46.1218 24.1773 46.2141 22.9306C46.3046 21.6946 46.8528 20.9558 47.9902 20.7302C49.5498 20.4195 50.6783 21.4584 50.4884 23.046C50.4458 23.3959 50.3678 23.7475 50.2542 24.0814C49.7521 25.5501 50.146 27.0774 49.949 28.5656C49.9135 28.8373 49.9881 29.1197 50.3128 29.1925C50.602 29.2564 50.7049 29.0096 50.8522 28.8213C51.8387 27.5551 52.339 25.9905 53.3061 24.7261C53.9022 23.9464 54.3316 23.1277 54.6634 22.2149C54.8781 21.6217 55.6748 21.469 55.9143 20.883C56.3827 19.7375 57.3497 19.9808 58.2209 20.0039C59.2252 20.0305 59.9473 20.4106 60.6571 21.279C61.8601 22.753 62.0535 24.4028 62.1777 26.1361C62.2291 26.8714 62.2362 27.6101 62.2753 28.3454C62.3054 28.9119 62.3161 29.4677 62.034 29.9899C61.9683 30.1124 61.9168 30.2918 61.9559 30.4143C62.2469 31.2969 62.0091 32.1742 61.9559 33.0533C61.8565 34.7049 62.183 36.289 62.7685 37.8146C63.0045 38.4308 62.7259 38.9085 62.568 39.4289C62.4988 39.6597 62.2682 39.6846 62.0464 39.6509C61.7554 39.6065 61.4165 39.6438 61.1787 39.507C59.9119 38.7807 58.2209 38.5569 57.9069 36.6797C57.7277 35.6071 57.4118 34.5646 57.3284 33.4618C57.2344 32.2311 56.8281 31.027 56.9736 29.7714Z" fill="#F08B2D"/>
<path d="M80.8312 34.0266C80.7318 34.1794 80.8099 34.3072 80.8915 34.4315C81.0388 34.6571 81.2286 34.8897 80.9483 35.1348C80.7158 35.3372 80.432 35.284 80.1942 35.1597C79.3354 34.7068 78.6062 34.0355 77.6818 33.6874C77.5646 33.643 77.444 33.4814 77.4121 33.3518C77.0749 31.9435 75.9837 30.9277 75.4692 29.6064C75.3077 29.1908 75.077 28.7983 75.1161 28.3472C75.2012 27.3474 74.6672 26.6122 74.0852 25.8379C74.0941 26.4079 73.9095 26.843 73.4056 27.0988C73.3382 27.1325 73.2779 27.2391 73.269 27.319C73.1164 28.6776 72.2133 29.6863 71.5692 30.7927C71.0316 31.7179 70.2456 32.5135 69.4418 33.2488C69.181 33.4867 68.8367 33.6235 68.4606 33.588C68.2193 33.5649 68.0081 33.6057 67.7828 33.7212C66.9524 34.1474 66.232 33.9218 65.7778 33.1209C65.6181 32.8385 65.5294 32.4905 65.3076 32.2738C63.9715 30.9596 64.6209 29.5282 65.0929 28.1554C65.2544 27.6831 65.4673 27.3119 65.1692 26.8466C65.1107 26.756 65.061 26.5767 65.1089 26.5127C65.6057 25.8397 65.21 25.147 65.1799 24.4633C65.1728 24.3159 65.1408 24.1437 65.2012 24.0247C65.6572 23.1083 65.3005 22.0978 65.54 21.1708C65.831 20.0466 65.8683 18.8514 66.4308 17.8001C66.7147 17.2691 67.1795 17.095 67.758 17.0879C68.6611 17.0773 69.5021 17.3597 70.3591 17.5781C70.6217 17.6456 70.7548 17.8214 70.8009 18.0753C70.9517 18.894 71.06 19.7056 70.6962 20.5101C70.3059 21.3732 70.061 22.2843 69.9084 23.2202C69.8747 23.4297 69.8179 23.6606 70.0291 23.7831C70.3219 23.9536 70.4425 23.6872 70.5827 23.5025C71.1735 22.7282 71.7484 21.9433 72.3091 21.1459C72.7917 20.4586 73.3524 19.6541 74.0692 19.3345C75.9926 18.4767 77.7226 18.5193 78.7588 20.7943C78.8297 20.9523 78.922 21.1566 78.8776 21.3022C78.5849 22.263 79.032 23.0959 79.2822 23.9661C79.4206 24.4491 79.5466 24.9393 79.3567 25.4454C79.2804 25.6479 79.2804 25.8716 79.4099 26.0439C79.905 26.7027 79.8695 27.4966 79.9813 28.2496C80.0771 28.8996 80.1569 29.5424 80.6396 30.045C80.6999 30.1072 80.7868 30.2102 80.7709 30.2688C80.487 31.3219 81.3138 31.995 81.6278 32.8439C82.0838 34.0799 82.0288 34.1421 80.8312 34.0266Z" fill="#F08B2D"/>
<path d="M39.2782 21.6183C40.0589 21.3466 40.4227 21.8722 40.8734 22.5755C41.5245 23.5913 42.1331 24.751 43.5544 24.9694C44.0015 25.0387 43.9358 25.5981 44.2126 25.8627C44.5941 26.2268 44.257 26.502 44.1221 26.8608C43.8897 27.4823 43.6644 27.8837 42.8979 27.7203C42.5803 27.6528 42.4596 27.9778 42.4507 28.262C42.417 29.3204 42.3159 30.3771 42.2751 31.432C42.2201 32.8794 41.9965 34.2681 41.3773 35.5823C41.3152 35.7155 41.1927 35.8522 41.2016 35.9819C41.2992 37.7116 40.0412 38.6244 38.9606 39.587C38.1036 40.3506 37.0869 40.9225 35.9496 41.2191C35.1387 41.4304 33.1479 40.7378 32.6565 40.0683C32.6387 40.0452 32.605 40.0168 32.6086 39.9954C32.7594 38.9334 32.133 38.3421 31.3275 37.8484C31.2441 37.7969 31.198 37.6441 31.182 37.5322C30.9123 35.5823 30.5539 33.6394 31.1128 31.6735C31.363 30.7944 32.0638 30.1 32.1064 29.141C32.11 29.0682 32.1916 28.9581 32.259 28.935C33.21 28.626 33.462 27.6955 33.9677 26.9993C34.3421 26.4843 34.7182 26.0279 35.4013 25.916C35.8272 25.8449 35.9265 25.3974 36.1732 25.115C36.654 24.561 37.0621 24.085 36.9858 23.2113C36.9113 22.389 38.1391 21.6165 39.2782 21.6183ZM37.9599 30.1764C36.3524 31.1691 35.3215 33.8561 35.8201 35.3425C35.9709 35.7936 36.2512 35.799 36.5493 35.5042C36.8953 35.1614 37.0497 34.7103 37.1544 34.2433C37.4471 32.9575 37.4631 31.6202 37.9599 30.1764Z" fill="#F08B2D"/>
</g>
<defs>
<clipPath id="clip0">
<rect width="106" height="78" fill="white"/>
</clipPath>
</defs>
</svg>
