<svg width="1872" height="1072" viewBox="0 0 1872 1072" fill="none" xmlns="http://www.w3.org/2000/svg">
<rect width="1872" height="1072" rx="32" fill="url(#paint0_radial)"/>
<rect width="1872" height="1072" rx="32" fill="url(#paint1_linear)"/>
<g opacity="0.06">
<path d="M-8 564.942C47.1795 567.199 228.185 566.05 510.769 543.39C864 515.065 1129.23 540.927 1314.46 564.942C1499.69 588.956 1678.77 609.277 1880 587.109M-8 608.661C83.8974 608.661 316.308 603.242 510.769 581.567C753.846 554.474 836.308 594.498 952 608.661C1067.69 622.824 1155.69 630.213 1355.69 597.577M973.538 576.641C991.59 582.388 1037.54 593.267 1076.92 590.804C1126.15 587.725 1140.92 584.03 1142.15 576.641C1143.38 569.252 1074.46 558.168 997.538 569.868M-8 649.917C70.9744 655.87 262.646 661.863 397.538 638.218C566.154 608.661 747.077 617.282 860.308 638.218C973.538 659.154 1131.08 667.774 1303.38 652.996C1441.23 641.173 1745.23 630.418 1880 626.518M1880 669.622C1802.87 667.774 1606.52 667.282 1438.15 680.09C1227.69 696.1 1071.38 723.809 1041.23 736.74C1011.08 749.671 1010.46 754.597 1048.62 751.519C1086.77 748.44 1285.54 733.661 1426.46 717.651C1539.2 704.844 1775.79 702.463 1880 702.873M-8 681.937C25.4359 678.858 114.338 677.38 202.462 696.1C312.615 719.499 385.846 713.341 451.692 709.647C517.538 705.952 601.846 729.351 686.769 729.351C771.692 729.351 869.538 733.046 977.231 714.573C1063.38 699.794 1107.08 691.174 1118.15 688.711M-8 721.346C26.2564 724.835 103.138 733.046 136.615 737.972C178.462 744.129 255.385 755.829 249.846 774.302C244.308 792.775 181.538 778.612 118.154 778.612C67.4462 778.612 12.9231 775.739 -8 774.302M299.077 758.908C332.923 756.855 407.877 753.366 436.923 755.829C473.231 758.908 529.231 766.913 585.231 768.76C641.231 770.607 797.538 766.913 869.538 777.381C941.538 787.849 1056.62 799.548 1141.54 794.622C1226.46 789.696 1268.92 777.381 1414.15 773.686C1530.34 770.73 1773.13 772.455 1880 773.686M1880 740.435C1842.87 737.561 1757.91 742.159 1715.08 744.129C1672.25 746.1 1561.44 744.95 1511.38 744.129M-8 818.637C50.6667 815.763 186.708 813.095 261.538 825.41C355.077 840.805 377.231 854.967 403.077 859.278C428.923 863.588 477.538 874.672 433.231 884.524C388.923 894.376 361.231 883.908 311.385 896.223C261.538 908.539 169.231 901.15 115.077 901.765C71.7538 902.258 14.9744 898.276 -8 896.223M-8 846.346C12.9231 844.294 64.3692 840.312 102.769 840.805C150.769 841.42 204.308 849.425 230.154 850.657C256 851.888 344 865.435 311.385 870.361C278.769 875.287 197.538 877.75 150.154 877.135C112.246 876.642 28.9231 872.414 -8 870.361M1880 819.869C1821.33 819.048 1688.12 816.79 1624.62 814.327C1545.23 811.248 1290.46 808.169 1216 821.1C1141.54 834.031 869.538 843.268 785.846 832.184C702.154 821.1 527.385 806.937 451.692 806.937C391.138 806.937 309.128 803.243 275.692 801.396M1880 848.194C1855.38 849.22 1797.05 850.657 1760.62 848.194C1715.08 845.115 1693.54 847.578 1719.38 856.814C1745.23 866.051 1774.77 876.519 1880 875.287M1880 909.77C1817.85 910.181 1671.75 904.105 1584.62 876.519C1475.69 842.036 1376 839.573 1282.46 848.194C1188.92 856.814 968 882.677 869.538 876.519C771.077 870.361 617.231 866.667 582.154 862.972C547.077 859.278 489.231 858.046 522.462 876.519C555.692 894.992 651.692 904.228 702.154 907.923C752.615 911.618 812.308 916.544 880.615 920.854C948.923 925.164 1168.62 936.248 1254.15 931.322C1339.69 926.396 1505.85 936.248 1576.62 938.095C1633.23 939.573 1705.64 934.196 1734.77 931.322M1306.46 876.519C1349.54 876.519 1470.15 874.672 1527.38 891.913C1584.62 909.155 1560.62 913.465 1511.38 913.465C1462.15 913.465 1311.38 906.691 1260.92 904.844C1210.46 902.997 1169.85 896.223 1088.62 900.534M-8 928.859C32.8205 939.738 143.877 957.431 261.538 941.174C408.615 920.854 463.385 912.849 569.846 927.012C676.308 941.174 867.077 955.337 935.385 955.337C1003.69 955.337 1284.92 963.958 1420.92 963.342C1556.92 962.726 1765.54 984.278 1880 957.8M1880 991.051C1811.49 997.825 1641.85 1008.66 1511.38 997.825C1348.31 984.278 1073.85 984.278 1028.31 991.051C982.769 997.825 1030.15 1007.68 1082.46 1013.83C1134.77 1019.99 1292.31 1026.15 1368.62 1026.15C1444.92 1026.15 1574.15 1028.61 1670.77 1036C1748.06 1041.91 1842.46 1031.08 1880 1026.15M-8 973.81C42.2564 982.636 166.523 996.593 261.538 981.815C380.308 963.342 452.308 947.948 582.154 960.879C712 973.81 808.615 968.268 830.154 981.815C851.692 995.362 793.846 999.056 736 999.672C678.154 1000.29 569.846 999.672 489.846 1009.52C409.846 1019.38 223.385 1023.69 150.154 1019.99C91.5692 1017.04 20.3077 1011.78 -8 1009.52M-8 1052.63C24.6154 1049.96 105.846 1046.22 169.846 1052.63C249.846 1060.63 422.769 1082.18 562.462 1067.41C702.154 1052.63 777.846 1031.08 898.462 1033.54C1019.08 1036 1177.85 1059.4 1216 1067.41C1254.15 1075.41 1303.38 1087.73 1161.23 1113.59C1019.08 1139.45 759.385 1177.01 624.615 1182.55C489.846 1188.1 260.308 1181.94 181.538 1190.56C118.523 1197.46 28.9231 1188.1 -8 1182.55M-8 1098.81C20.718 1098.81 96.4923 1098.81 169.846 1098.81C261.538 1098.81 437.538 1124.67 569.846 1108.05C702.154 1091.42 776 1076.03 865.231 1071.72C954.462 1067.41 1102.15 1078.49 1014.15 1098.81C926.154 1119.13 659.077 1144.99 569.846 1146.84C480.615 1148.69 278.154 1154.84 163.077 1146.84C71.0154 1140.44 10.6667 1139.66 -8 1140.07M1880 1084.65C1828.51 1080.75 1710.65 1071.84 1651.08 1067.41C1576.62 1061.86 1430.77 1052.01 1368.62 1055.71C1306.46 1059.4 1300.31 1072.33 1368.62 1078.49C1436.92 1084.65 1496 1098.81 1563.08 1098.81C1630.15 1098.81 1787.08 1124.67 1827.69 1125.9C1860.18 1126.89 1876.1 1130.42 1880 1132.06M1880 1159.16C1813.54 1152.18 1661.42 1136.99 1584.62 1132.06C1488.62 1125.9 1395.69 1124.06 1353.85 1132.06C1312 1140.07 1343.38 1164.7 1420.92 1172.7C1498.46 1180.71 1546.46 1207.8 1624.62 1202.26C1687.14 1197.83 1820.92 1200.41 1880 1202.26M676.308 656.691C721.231 660.385 778.462 662.848 826.462 672.701C874.462 682.553 921.231 691.789 889.231 696.1C857.231 700.41 726.154 701.026 676.308 696.1C626.462 691.174 585.846 680.706 574.154 672.701C562.462 664.696 552 656.691 585.231 656.691C618.462 656.691 649.231 654.638 676.308 656.691Z" stroke="#1F1F1F" stroke-width="3"/>
<path d="M1880 -96.0584C1824.82 -93.8006 1643.82 -94.95 1361.23 -117.61C1008 -145.935 742.769 -120.073 557.538 -96.0584C372.308 -72.0435 193.231 -51.7232 -8.00007 -73.8908M1880 -52.339C1788.1 -52.339 1555.69 -57.7577 1361.23 -79.4327C1118.15 -106.526 1035.69 -66.5016 920 -52.339C804.308 -38.1764 716.308 -30.7872 516.308 -63.4228M898.462 -84.3588C880.41 -78.6117 834.461 -67.7331 795.077 -70.1962C745.846 -73.275 731.077 -76.9696 729.846 -84.3588C728.615 -91.748 797.538 -102.832 874.462 -91.1322M1880 -11.0827C1801.03 -5.13031 1609.35 0.863136 1474.46 -22.7823C1305.85 -52.339 1124.92 -43.7183 1011.69 -22.7823C898.462 -1.84623 740.923 6.77448 568.615 -8.00389C430.769 -19.8266 126.769 -30.582 -8.00007 -34.4818M-8.00007 8.62178C69.1281 6.77448 265.477 6.28187 433.846 19.0898C644.308 35.0997 800.615 62.8091 830.769 75.7402C860.923 88.6713 861.538 93.5974 823.385 90.5186C785.231 87.4397 586.461 72.6614 445.538 56.6515C332.8 43.8436 96.2051 41.4626 -8.00007 41.8731M1880 20.9371C1846.56 17.8583 1757.66 16.3804 1669.54 35.0997C1559.38 58.4988 1486.15 52.3411 1420.31 48.6465C1354.46 44.9519 1270.15 68.351 1185.23 68.351C1100.31 68.351 1002.46 72.0456 894.769 53.5727C808.615 38.7943 764.923 30.1736 753.846 27.7105M1880 60.3461C1845.74 63.8354 1768.86 72.0456 1735.38 76.9717C1693.54 83.1294 1616.62 94.8289 1622.15 113.302C1627.69 131.775 1690.46 117.612 1753.85 117.612C1804.55 117.612 1859.08 114.739 1880 113.302M1572.92 97.9078C1539.08 95.8552 1464.12 92.3659 1435.08 94.8289C1398.77 97.9078 1342.77 105.913 1286.77 107.76C1230.77 109.607 1074.46 105.913 1002.46 116.381C930.462 126.849 815.385 138.548 730.461 133.622C645.538 128.696 603.077 116.381 457.846 112.686C341.661 109.73 98.8717 111.455 -8.00007 112.686M-8.00007 79.4348C29.1281 76.5612 114.092 81.1589 156.923 83.1294C199.754 85.0998 310.564 83.9504 360.615 83.1294M1880 157.637C1821.33 154.763 1685.29 152.095 1610.46 164.41C1516.92 179.805 1494.77 193.967 1468.92 198.278C1443.08 202.588 1394.46 213.672 1438.77 223.524C1483.08 233.376 1510.77 222.908 1560.62 235.223C1610.46 247.539 1702.77 240.15 1756.92 240.765C1800.25 241.258 1857.03 237.276 1880 235.223M1880 185.346C1859.08 183.294 1807.63 179.312 1769.23 179.805C1721.23 180.42 1667.69 188.425 1641.85 189.657C1616 190.888 1528 204.435 1560.62 209.361C1593.23 214.287 1674.46 216.75 1721.85 216.135C1759.75 215.642 1843.08 211.414 1880 209.361M-8.00007 158.869C50.6666 158.048 183.877 155.79 247.385 153.327C326.769 150.248 581.538 147.169 656 160.1C730.461 173.031 1002.46 182.268 1086.15 171.184C1169.85 160.1 1344.62 145.937 1420.31 145.937C1480.86 145.937 1562.87 142.243 1596.31 140.396M-8.00007 187.194C16.6153 188.22 74.9538 189.657 111.385 187.194C156.923 184.115 178.461 186.578 152.615 195.814C126.769 205.051 97.2307 215.519 -8.00007 214.287M-8.00007 248.77C54.1538 249.181 200.246 243.105 287.385 215.519C396.308 181.036 496 178.573 589.538 187.194C683.077 195.814 904 221.677 1002.46 215.519C1100.92 209.361 1254.77 205.667 1289.85 201.972C1324.92 198.278 1382.77 197.046 1349.54 215.519C1316.31 233.992 1220.31 243.228 1169.85 246.923C1119.38 250.618 1059.69 255.544 991.385 259.854C923.077 264.164 703.385 275.248 617.846 270.322C532.308 265.396 366.154 275.248 295.385 277.095C238.769 278.573 166.359 273.196 137.231 270.322M565.538 215.519C522.461 215.519 401.846 213.672 344.615 230.913C287.385 248.155 311.385 252.465 360.615 252.465C409.846 252.465 560.615 245.691 611.077 243.844C661.538 241.997 702.154 235.223 783.385 239.534M1880 267.859C1839.18 278.738 1728.12 296.431 1610.46 280.174C1463.38 259.854 1408.62 251.849 1302.15 266.012C1195.69 280.174 1004.92 294.337 936.615 294.337C868.308 294.337 587.077 302.958 451.077 302.342C315.077 301.726 106.461 323.278 -8.00007 296.8M-8.00007 330.051C60.5128 336.825 230.154 347.662 360.615 336.825C523.692 323.278 798.154 323.278 843.692 330.051C889.231 336.825 841.846 346.677 789.538 352.835C737.231 358.992 579.692 365.15 503.385 365.15C427.077 365.15 297.846 367.613 201.231 375.002C123.938 380.914 29.5384 370.076 -8.00007 365.15M1880 312.81C1829.74 321.636 1705.48 335.593 1610.46 320.815C1491.69 302.342 1419.69 286.948 1289.85 299.879C1160 312.81 1063.38 307.268 1041.85 320.815C1020.31 334.362 1078.15 338.056 1136 338.672C1193.85 339.288 1302.15 338.672 1382.15 348.524C1462.15 358.377 1648.62 362.687 1721.85 358.992C1780.43 356.037 1851.69 350.782 1880 348.524M1880 391.628C1847.38 388.96 1766.15 385.224 1702.15 391.628C1622.15 399.633 1449.23 421.185 1309.54 406.406C1169.85 391.628 1094.15 370.076 973.538 372.539C852.923 375.002 694.154 398.401 656 406.406C617.846 414.411 568.615 426.726 710.769 452.589C852.923 478.451 1112.62 516.012 1247.38 521.554C1382.15 527.096 1611.69 520.939 1690.46 529.559C1753.48 536.456 1843.08 527.096 1880 521.554M1880 437.81C1851.28 437.81 1775.51 437.81 1702.15 437.81C1610.46 437.81 1434.46 463.672 1302.15 447.047C1169.85 430.421 1096 415.027 1006.77 410.717C917.538 406.406 769.846 417.49 857.846 437.81C945.846 458.131 1212.92 483.993 1302.15 485.84C1391.38 487.687 1593.85 493.845 1708.92 485.84C1800.98 479.436 1861.33 478.656 1880 479.067M-8.00007 423.648C43.4871 419.748 161.354 410.84 220.923 406.406C295.385 400.864 441.231 391.012 503.385 394.707C565.538 398.401 571.692 411.332 503.385 417.49C435.077 423.648 376 437.81 308.923 437.81C241.846 437.81 84.923 463.672 44.3076 464.904C11.8153 465.889 -4.10263 469.42 -8.00007 471.062M-8.00007 498.155C58.4615 491.177 210.585 475.988 287.385 471.062C383.385 464.904 476.308 463.057 518.154 471.062C560 479.067 528.615 503.697 451.077 511.702C373.538 519.707 325.538 546.801 247.385 541.259C184.861 536.825 51.0769 539.412 -8.00007 541.259M1195.69 -4.30929C1150.77 -0.614702 1093.54 1.84836 1045.54 11.7006C997.538 21.5529 950.769 30.7893 982.769 35.0997C1014.77 39.41 1145.85 40.0258 1195.69 35.0997C1245.54 30.1736 1286.15 19.7056 1297.85 11.7006C1309.54 3.69566 1320 -4.30929 1286.77 -4.30929C1253.54 -4.30929 1222.77 -6.36166 1195.69 -4.30929Z" stroke="#1F1F1F" stroke-width="3"/>
</g>
<defs>
<radialGradient id="paint0_radial" cx="0" cy="0" r="1" gradientUnits="userSpaceOnUse" gradientTransform="translate(936) rotate(90) scale(1072 1872)">
<stop stop-color="#EFEFEF"/>
<stop offset="1" stop-color="#CDCDCD"/>
</radialGradient>
<linearGradient id="paint1_linear" x1="936" y1="0" x2="936" y2="1072" gradientUnits="userSpaceOnUse">
<stop stop-color="#F2E2D9"/>
<stop offset="1" stop-color="#EBD4C7"/>
</linearGradient>
</defs>
</svg>
