<svg width="2061" height="1632" viewBox="0 0 2061 1632" fill="none" xmlns="http://www.w3.org/2000/svg">
<g clip-path="url(#clip0)">
<rect width="2061" height="1632" fill="#199DDF"/>
<rect width="2798" height="287" transform="matrix(-0.978838 -0.204639 -0.204639 0.978838 2605.7 120)" fill="url(#paint0_linear)"/>
<rect width="2798" height="287" transform="matrix(-0.978838 -0.204639 -0.204639 0.978838 2546.97 400.927)" fill="url(#paint1_linear)"/>
<rect width="2798" height="287" transform="matrix(-0.978838 -0.204639 -0.204639 0.978838 2488.24 681.853)" fill="url(#paint2_linear)"/>
<rect width="2798" height="286" transform="matrix(-0.978838 -0.204639 -0.204639 0.978838 2429.51 962.779)" fill="url(#paint3_linear)"/>
<rect width="2798" height="287" transform="matrix(-0.978838 -0.204639 -0.204639 0.978838 2370.98 1242.73)" fill="url(#paint4_linear)"/>
<rect width="2798" height="287" transform="matrix(-0.978838 -0.204639 -0.204639 0.978838 2312.25 1523.65)" fill="url(#paint5_linear)"/>
<rect width="2798" height="287" transform="matrix(-0.978838 -0.204639 -0.204639 0.978838 2253.52 1804.58)" fill="url(#paint6_linear)"/>
</g>
<defs>
<linearGradient id="paint0_linear" x1="1399" y1="0" x2="1399" y2="287" gradientUnits="userSpaceOnUse">
<stop stop-color="#27A7E7"/>
<stop offset="1" stop-color="#199DDF"/>
</linearGradient>
<linearGradient id="paint1_linear" x1="1399" y1="0" x2="1399" y2="287" gradientUnits="userSpaceOnUse">
<stop stop-color="#27A7E7"/>
<stop offset="1" stop-color="#199DDF"/>
</linearGradient>
<linearGradient id="paint2_linear" x1="1399" y1="0" x2="1399" y2="287" gradientUnits="userSpaceOnUse">
<stop stop-color="#27A7E7"/>
<stop offset="1" stop-color="#199DDF"/>
</linearGradient>
<linearGradient id="paint3_linear" x1="1399" y1="0" x2="1399" y2="286" gradientUnits="userSpaceOnUse">
<stop stop-color="#27A7E7"/>
<stop offset="1" stop-color="#199DDF"/>
</linearGradient>
<linearGradient id="paint4_linear" x1="1399" y1="0" x2="1399" y2="287" gradientUnits="userSpaceOnUse">
<stop stop-color="#27A7E7"/>
<stop offset="1" stop-color="#199DDF"/>
</linearGradient>
<linearGradient id="paint5_linear" x1="1399" y1="0" x2="1399" y2="287" gradientUnits="userSpaceOnUse">
<stop stop-color="#27A7E7"/>
<stop offset="1" stop-color="#199DDF"/>
</linearGradient>
<linearGradient id="paint6_linear" x1="1399" y1="0" x2="1399" y2="287" gradientUnits="userSpaceOnUse">
<stop stop-color="#27A7E7"/>
<stop offset="1" stop-color="#199DDF"/>
</linearGradient>
<clipPath id="clip0">
<rect width="2061" height="1632" fill="white"/>
</clipPath>
</defs>
</svg>
