<svg width="2205" height="1119" viewBox="0 0 2205 1119" fill="none" xmlns="http://www.w3.org/2000/svg">
<rect width="2205" height="1119" fill="url(#paint0_linear)"/>
<g opacity="0.1">
<path d="M526.122 1185.29L571.146 1308.99L1993.06 791.453L1948.04 667.753L526.122 1185.29Z" stroke="#EBDEBA" stroke-width="4" stroke-miterlimit="10"/>
<path d="M600.108 1388.55L571.149 1308.99L1993.07 791.453L2022.02 871.016L600.108 1388.55Z" stroke="#EBDEBA" stroke-width="4" stroke-miterlimit="10"/>
<path d="M548.631 1247.12L571.146 1308.98L1993.06 791.447L1970.55 729.586L548.631 1247.12Z" stroke="#EBDEBA" stroke-width="4" stroke-miterlimit="10"/>
<path d="M213.928 327.546L236.443 389.408L1658.36 -128.127L1635.84 -189.989L213.928 327.546Z" stroke="#EBDEBA" stroke-width="4" stroke-miterlimit="10"/>
<path d="M2130.69 1169.58L2022.02 871.018L600.108 1388.55L708.775 1687.11" stroke="#EBDEBA" stroke-width="4" stroke-miterlimit="10"/>
<path d="M76.3086 -50.5762L184.975 247.982L1606.89 -269.554L1498.22 -568.111" stroke="#EBDEBA" stroke-width="4" stroke-miterlimit="10"/>
<path d="M213.933 327.544L184.975 247.981L1606.89 -269.554L1635.85 -189.991L213.933 327.544Z" stroke="#EBDEBA" stroke-width="4" stroke-miterlimit="10"/>
<path d="M213.936 327.564L258.959 451.265L1680.88 -66.2705L1635.85 -189.971L213.936 327.564Z" stroke="#EBDEBA" stroke-width="4" stroke-miterlimit="10"/>
<path d="M1217.48 933.662L1262.5 1057.36L1993.07 791.458L1948.04 667.758L1217.48 933.662Z" stroke="#EBDEBA" stroke-width="4" stroke-miterlimit="10"/>
<path d="M905.293 75.9365L950.316 199.637L1680.88 -66.2672L1635.86 -189.967L905.293 75.9365Z" stroke="#EBDEBA" stroke-width="4" stroke-miterlimit="10"/>
<path d="M1948.03 667.732L1680.88 -66.2672L1618.3 -43.4902L1885.45 690.509L1948.03 667.732Z" stroke="#EBDEBA" stroke-width="4" stroke-miterlimit="10"/>
<path d="M588.697 1162.49L321.543 428.491L258.964 451.268L526.118 1185.27L588.697 1162.49Z" stroke="#EBDEBA" stroke-width="4" stroke-miterlimit="10"/>
<path d="M1681.92 -634.972L2314.39 1102.72" stroke="#EBDEBA" stroke-width="4" stroke-miterlimit="10"/>
<path d="M2130.69 1169.58L1498.22 -568.111" stroke="#EBDEBA" stroke-width="4" stroke-miterlimit="10"/>
<path d="M76.3086 -50.5762L708.775 1687.11" stroke="#EBDEBA" stroke-width="4" stroke-miterlimit="10"/>
<path d="M525.079 1753.97L-107.388 16.2847" stroke="#EBDEBA" stroke-width="4" stroke-miterlimit="10"/>
<path d="M1681.92 -634.971L1998.15 233.872L1814.46 300.732L1498.22 -568.111" stroke="#EBDEBA" stroke-width="4" stroke-miterlimit="10"/>
<path d="M76.3084 -50.5752L392.542 818.268L208.845 885.128L-107.388 16.2847" stroke="#EBDEBA" stroke-width="4" stroke-miterlimit="10"/>
<path d="M2301.19 539.194L2034.04 -194.805L1971.44 -172.021L2238.59 561.977L2301.19 539.194Z" stroke="#EBDEBA" stroke-width="4" stroke-miterlimit="10"/>
<path d="M235.542 1291.03L-31.6121 557.03L-94.1914 579.807L172.962 1313.81L235.542 1291.03Z" stroke="#EBDEBA" stroke-width="4" stroke-miterlimit="10"/>
</g>
<g opacity="0.1">
<path d="M1680.88 1185.29L1635.85 1308.99L213.937 791.453L258.96 667.753L1680.88 1185.29Z" stroke="#EBDEBA" stroke-width="4" stroke-miterlimit="10"/>
<path d="M1606.89 1388.55L1635.85 1308.99L213.933 791.453L184.975 871.016L1606.89 1388.55Z" stroke="#EBDEBA" stroke-width="4" stroke-miterlimit="10"/>
<path d="M1658.37 1247.12L1635.85 1308.98L213.936 791.447L236.452 729.586L1658.37 1247.12Z" stroke="#EBDEBA" stroke-width="4" stroke-miterlimit="10"/>
<path d="M1993.07 327.546L1970.56 389.408L548.639 -128.127L571.155 -189.989L1993.07 327.546Z" stroke="#EBDEBA" stroke-width="4" stroke-miterlimit="10"/>
<path d="M76.3084 1169.58L184.974 871.018L1606.89 1388.55L1498.22 1687.11" stroke="#EBDEBA" stroke-width="4" stroke-miterlimit="10"/>
<path d="M2130.69 -50.5762L2022.02 247.982L600.108 -269.554L708.774 -568.111" stroke="#EBDEBA" stroke-width="4" stroke-miterlimit="10"/>
<path d="M1993.07 327.544L2022.02 247.981L600.108 -269.554L571.15 -189.991L1993.07 327.544Z" stroke="#EBDEBA" stroke-width="4" stroke-miterlimit="10"/>
<path d="M1993.06 327.564L1948.04 451.265L526.124 -66.2705L571.147 -189.971L1993.06 327.564Z" stroke="#EBDEBA" stroke-width="4" stroke-miterlimit="10"/>
<path d="M989.522 933.662L944.499 1057.36L213.934 791.458L258.957 667.758L989.522 933.662Z" stroke="#EBDEBA" stroke-width="4" stroke-miterlimit="10"/>
<path d="M1301.71 75.9365L1256.68 199.637L526.118 -66.2672L571.141 -189.967L1301.71 75.9365Z" stroke="#EBDEBA" stroke-width="4" stroke-miterlimit="10"/>
<path d="M258.965 667.732L526.119 -66.2672L588.698 -43.4902L321.544 690.509L258.965 667.732Z" stroke="#EBDEBA" stroke-width="4" stroke-miterlimit="10"/>
<path d="M1618.3 1162.49L1885.46 428.491L1948.04 451.268L1680.88 1185.27L1618.3 1162.49Z" stroke="#EBDEBA" stroke-width="4" stroke-miterlimit="10"/>
<path d="M525.078 -634.972L-107.388 1102.72" stroke="#EBDEBA" stroke-width="4" stroke-miterlimit="10"/>
<path d="M76.3082 1169.58L708.774 -568.111" stroke="#EBDEBA" stroke-width="4" stroke-miterlimit="10"/>
<path d="M2130.69 -50.5762L1498.22 1687.11" stroke="#EBDEBA" stroke-width="4" stroke-miterlimit="10"/>
<path d="M1681.92 1753.97L2314.39 16.2847" stroke="#EBDEBA" stroke-width="4" stroke-miterlimit="10"/>
<path d="M525.078 -634.971L208.845 233.872L392.541 300.732L708.774 -568.111" stroke="#EBDEBA" stroke-width="4" stroke-miterlimit="10"/>
<path d="M2130.69 -50.5752L1814.46 818.268L1998.15 885.128L2314.39 16.2847" stroke="#EBDEBA" stroke-width="4" stroke-miterlimit="10"/>
<path d="M-94.1914 539.194L172.962 -194.805L235.56 -172.021L-31.5942 561.977L-94.1914 539.194Z" stroke="#EBDEBA" stroke-width="4" stroke-miterlimit="10"/>
<path d="M1971.46 1291.03L2238.61 557.03L2301.19 579.807L2034.04 1313.81L1971.46 1291.03Z" stroke="#EBDEBA" stroke-width="4" stroke-miterlimit="10"/>
</g>
<defs>
<linearGradient id="paint0_linear" x1="0" y1="0" x2="2205" y2="1119" gradientUnits="userSpaceOnUse">
<stop stop-color="#1E2B33"/>
<stop offset="1" stop-color="#0B1013"/>
</linearGradient>
</defs>
</svg>
