<svg width="1516" height="980" viewBox="0 0 1516 980" fill="none" xmlns="http://www.w3.org/2000/svg">
<rect width="1516" height="980" rx="32" fill="url(#paint0_radial)"/>
<rect x="0.5" y="0.5" width="71.1905" height="244" stroke="#100E14"/>
<rect x="72.6905" y="0.5" width="71.1905" height="244" stroke="#100E14"/>
<rect x="144.881" y="0.5" width="71.1905" height="244" stroke="#100E14"/>
<rect x="217.071" y="0.5" width="71.1905" height="244" stroke="#100E14"/>
<rect x="289.262" y="0.5" width="71.1905" height="244" stroke="#100E14"/>
<rect x="361.452" y="0.5" width="71.1905" height="244" stroke="#100E14"/>
<rect x="433.643" y="0.5" width="71.1905" height="244" stroke="#100E14"/>
<rect x="505.833" y="0.5" width="71.1905" height="244" stroke="#100E14"/>
<rect x="578.024" y="0.5" width="71.1905" height="244" stroke="#100E14"/>
<rect x="650.214" y="0.5" width="71.1905" height="244" stroke="#100E14"/>
<rect x="722.405" y="0.5" width="71.1905" height="244" stroke="#100E14"/>
<rect x="794.595" y="0.5" width="71.1905" height="244" stroke="#100E14"/>
<rect x="866.786" y="0.5" width="71.1905" height="244" stroke="#100E14"/>
<rect x="938.976" y="0.5" width="71.1905" height="244" stroke="#100E14"/>
<rect x="1011.17" y="0.5" width="71.1905" height="244" stroke="#100E14"/>
<rect x="1083.36" y="0.5" width="71.1905" height="244" stroke="#100E14"/>
<rect x="1155.55" y="0.5" width="71.1905" height="244" stroke="#100E14"/>
<rect x="1227.74" y="0.5" width="71.1905" height="244" stroke="#100E14"/>
<rect x="1299.93" y="0.5" width="71.1905" height="244" stroke="#100E14"/>
<rect x="1372.12" y="0.5" width="71.1905" height="244" stroke="#100E14"/>
<rect x="1444.31" y="0.5" width="71.1905" height="244" stroke="#100E14"/>
<rect x="0.5" y="245.5" width="71.1905" height="244" stroke="#100E14"/>
<rect x="72.6905" y="245.5" width="71.1905" height="244" stroke="#100E14"/>
<rect x="144.881" y="245.5" width="71.1905" height="244" stroke="#100E14"/>
<rect x="217.071" y="245.5" width="71.1905" height="244" stroke="#100E14"/>
<rect x="289.262" y="245.5" width="71.1905" height="244" stroke="#100E14"/>
<rect x="361.452" y="245.5" width="71.1905" height="244" stroke="#100E14"/>
<rect x="433.643" y="245.5" width="71.1905" height="244" stroke="#100E14"/>
<rect x="505.833" y="245.5" width="71.1905" height="244" stroke="#100E14"/>
<rect x="578.024" y="245.5" width="71.1905" height="244" stroke="#100E14"/>
<rect x="650.214" y="245.5" width="71.1905" height="244" stroke="#100E14"/>
<rect x="722.405" y="245.5" width="71.1905" height="244" stroke="#100E14"/>
<rect x="794.595" y="245.5" width="71.1905" height="244" stroke="#100E14"/>
<rect x="866.786" y="245.5" width="71.1905" height="244" stroke="#100E14"/>
<rect x="938.976" y="245.5" width="71.1905" height="244" stroke="#100E14"/>
<rect x="1011.17" y="245.5" width="71.1905" height="244" stroke="#100E14"/>
<rect x="1083.36" y="245.5" width="71.1905" height="244" stroke="#100E14"/>
<rect x="1155.55" y="245.5" width="71.1905" height="244" stroke="#100E14"/>
<rect x="1227.74" y="245.5" width="71.1905" height="244" stroke="#100E14"/>
<rect x="1299.93" y="245.5" width="71.1905" height="244" stroke="#100E14"/>
<rect x="1372.12" y="245.5" width="71.1905" height="244" stroke="#100E14"/>
<rect x="1444.31" y="245.5" width="71.1905" height="244" stroke="#100E14"/>
<rect x="0.5" y="490.5" width="71.1905" height="244" stroke="#100E14"/>
<rect x="72.6905" y="490.5" width="71.1905" height="244" stroke="#100E14"/>
<rect x="144.881" y="490.5" width="71.1905" height="244" stroke="#100E14"/>
<rect x="217.071" y="490.5" width="71.1905" height="244" stroke="#100E14"/>
<rect x="289.262" y="490.5" width="71.1905" height="244" stroke="#100E14"/>
<rect x="361.452" y="490.5" width="71.1905" height="244" stroke="#100E14"/>
<rect x="433.643" y="490.5" width="71.1905" height="244" stroke="#100E14"/>
<rect x="505.833" y="490.5" width="71.1905" height="244" stroke="#100E14"/>
<rect x="578.024" y="490.5" width="71.1905" height="244" stroke="#100E14"/>
<rect x="650.214" y="490.5" width="71.1905" height="244" stroke="#100E14"/>
<rect x="722.405" y="490.5" width="71.1905" height="244" stroke="#100E14"/>
<rect x="794.595" y="490.5" width="71.1905" height="244" stroke="#100E14"/>
<rect x="866.786" y="490.5" width="71.1905" height="244" stroke="#100E14"/>
<rect x="938.976" y="490.5" width="71.1905" height="244" stroke="#100E14"/>
<rect x="1011.17" y="490.5" width="71.1905" height="244" stroke="#100E14"/>
<rect x="1083.36" y="490.5" width="71.1905" height="244" stroke="#100E14"/>
<rect x="1155.55" y="490.5" width="71.1905" height="244" stroke="#100E14"/>
<rect x="1227.74" y="490.5" width="71.1905" height="244" stroke="#100E14"/>
<rect x="1299.93" y="490.5" width="71.1905" height="244" stroke="#100E14"/>
<rect x="1372.12" y="490.5" width="71.1905" height="244" stroke="#100E14"/>
<rect x="1444.31" y="490.5" width="71.1905" height="244" stroke="#100E14"/>
<rect x="0.5" y="735.5" width="71.1905" height="244" stroke="#100E14"/>
<rect x="72.6905" y="735.5" width="71.1905" height="244" stroke="#100E14"/>
<rect x="144.881" y="735.5" width="71.1905" height="244" stroke="#100E14"/>
<rect x="217.071" y="735.5" width="71.1905" height="244" stroke="#100E14"/>
<rect x="289.262" y="735.5" width="71.1905" height="244" stroke="#100E14"/>
<rect x="361.452" y="735.5" width="71.1905" height="244" stroke="#100E14"/>
<rect x="433.643" y="735.5" width="71.1905" height="244" stroke="#100E14"/>
<rect x="505.833" y="735.5" width="71.1905" height="244" stroke="#100E14"/>
<rect x="578.024" y="735.5" width="71.1905" height="244" stroke="#100E14"/>
<rect x="650.214" y="735.5" width="71.1905" height="244" stroke="#100E14"/>
<rect x="722.405" y="735.5" width="71.1905" height="244" stroke="#100E14"/>
<rect x="794.595" y="735.5" width="71.1905" height="244" stroke="#100E14"/>
<rect x="866.786" y="735.5" width="71.1905" height="244" stroke="#100E14"/>
<rect x="938.976" y="735.5" width="71.1905" height="244" stroke="#100E14"/>
<rect x="1011.17" y="735.5" width="71.1905" height="244" stroke="#100E14"/>
<rect x="1083.36" y="735.5" width="71.1905" height="244" stroke="#100E14"/>
<rect x="1155.55" y="735.5" width="71.1905" height="244" stroke="#100E14"/>
<rect x="1227.74" y="735.5" width="71.1905" height="244" stroke="#100E14"/>
<rect x="1299.93" y="735.5" width="71.1905" height="244" stroke="#100E14"/>
<rect x="1372.12" y="735.5" width="71.1905" height="244" stroke="#100E14"/>
<rect x="1444.31" y="735.5" width="71.1905" height="244" stroke="#100E14"/>
<defs>
<radialGradient id="paint0_radial" cx="0" cy="0" r="1" gradientUnits="userSpaceOnUse" gradientTransform="translate(758 490) rotate(32.8802) scale(902.587 1396.25)">
<stop stop-color="#14111A"/>
<stop offset="1" stop-color="#393541"/>
</radialGradient>
</defs>
</svg>
