<svg width="2229" height="1095" viewBox="0 0 2229 1095" fill="none" xmlns="http://www.w3.org/2000/svg">
<g clip-path="url(#clip0)">
<rect width="2229" height="1095" fill="#F7F2E3"/>
<g style="mix-blend-mode:multiply">
<path fill-rule="evenodd" clip-rule="evenodd" d="M1573.44 -87.1182C1769.5 -27.8793 2052.93 -104.136 2140.01 81.2851C2227.56 267.729 2000.66 444.5 1909.94 629.451C1843.31 765.29 1828.15 950.497 1686.98 1004.86C1549.91 1057.64 1415.86 937.036 1285.16 870.036C1187.9 820.181 1106.68 758.626 1039.1 672.732C950.386 559.989 847.863 451.501 842.997 308.101C836.037 102.981 826.928 -163.26 1007.42 -260.917C1187.9 -358.57 1377.03 -146.461 1573.44 -87.1182Z" fill="url(#paint0_linear)"/>
</g>
<g style="mix-blend-mode:multiply">
<path fill-rule="evenodd" clip-rule="evenodd" d="M1905.94 548.966C2033.01 546.994 2158.35 463.646 2271.64 521.268C2417.62 595.516 2574.45 723.379 2570.94 887.199C2567.44 1050.44 2383.24 1135.18 2256.28 1237.76C2149.26 1324.24 2042.6 1440.27 1905.94 1424.56C1775.13 1409.52 1708.84 1269.35 1627.82 1165.49C1561.33 1080.25 1499.72 994.548 1486.76 887.199C1471.79 763.144 1454.2 610.885 1551.41 532.446C1647.14 455.197 1782.97 550.875 1905.94 548.966Z" fill="url(#paint1_linear)"/>
</g>
<g style="mix-blend-mode:multiply">
<path fill-rule="evenodd" clip-rule="evenodd" d="M1047.51 448.376C1142.72 590.769 1284.6 723.391 1262.89 893.299C1239.2 1078.69 1119.73 1288.74 935.849 1322.2C756.373 1354.86 673.654 1074.59 496.078 1032.82C295.826 985.717 57.5338 1216.75 -95.7444 1079.54C-245.296 945.67 -183.739 682.177 -98.8038 500.318C-23.6483 339.399 152.373 268.704 315.62 198.75C457.19 138.085 609.62 84.5618 755.395 134.281C896.074 182.262 964.898 324.814 1047.51 448.376Z" fill="url(#paint2_linear)"/>
</g>
<g style="mix-blend-mode:multiply">
<path fill-rule="evenodd" clip-rule="evenodd" d="M381.895 -933.256C552.845 -896.495 655.078 -730.88 740.746 -578.406C802.089 -469.226 785.749 -344.666 782.945 -219.457C780.246 -98.8691 796.533 26.6474 725.026 123.769C643.265 234.817 516.003 293.231 381.895 325.253C193.657 370.199 -33.7286 469.784 -176.418 339.011C-319.362 208.006 -212.958 -25.5333 -212.45 -219.457C-211.945 -412.439 -296.973 -626.72 -173.502 -775.007C-45.4338 -928.815 186.252 -975.327 381.895 -933.256Z" fill="url(#paint3_linear)"/>
</g>
</g>
<defs>
<linearGradient id="paint0_linear" x1="1580.77" y1="-157.286" x2="1256.42" y2="919.622" gradientUnits="userSpaceOnUse">
<stop stop-color="#E7AB80" stop-opacity="0.1"/>
<stop offset="1" stop-color="#EBD1BE" stop-opacity="0.2"/>
</linearGradient>
<linearGradient id="paint1_linear" x1="2023" y1="501" x2="2023" y2="1426" gradientUnits="userSpaceOnUse">
<stop stop-color="#E7AB80" stop-opacity="0.1"/>
<stop offset="1" stop-color="#EBD1BE" stop-opacity="0.2"/>
</linearGradient>
<linearGradient id="paint2_linear" x1="1108.1" y1="494.034" x2="-74.5383" y2="1146.94" gradientUnits="userSpaceOnUse">
<stop stop-color="#E7AB80" stop-opacity="0.1"/>
<stop offset="1" stop-color="#EBD1BE" stop-opacity="0.2"/>
</linearGradient>
<linearGradient id="paint3_linear" x1="768" y1="64" x2="268" y2="404" gradientUnits="userSpaceOnUse">
<stop stop-color="#E7AB80" stop-opacity="0.1"/>
<stop offset="1" stop-color="#EBD1BE" stop-opacity="0.2"/>
</linearGradient>
<clipPath id="clip0">
<rect width="2229" height="1095" fill="white"/>
</clipPath>
</defs>
</svg>
